<svg width="88" height="16" viewBox="0 0 88 16" fill="none" xmlns="http://www.w3.org/2000/svg">
<path d="M14.6316 6.11933C14.5456 5.86733 14.3183 5.68933 14.053 5.66866L10.2523 5.36666L8.60765 1.72599C8.50031 1.48666 8.26231 1.33333 8.00031 1.33333C7.73831 1.33333 7.50031 1.48666 7.39298 1.72533L5.74831 5.36666L1.94764 5.66866C1.68698 5.68933 1.46231 5.86066 1.37364 6.10666C1.28498 6.35266 1.34764 6.628 1.53498 6.81066L4.34364 9.54866L3.35031 13.85C3.28898 14.116 3.39631 14.3927 3.62098 14.548C3.73565 14.6267 3.86764 14.6667 4.00031 14.6667C4.12898 14.6667 4.25831 14.6293 4.37031 14.5547L8.00031 12.1347L11.6303 14.5547C11.8623 14.7093 12.167 14.7033 12.3936 14.5387C12.619 14.374 12.7183 14.0853 12.6416 13.8173L11.4223 9.55066L14.4463 6.82933C14.6443 6.65066 14.717 6.37199 14.6316 6.11933Z" fill="#FFBA08"/>
<path d="M32.6316 6.11933C32.5456 5.86733 32.3183 5.68933 32.053 5.66866L28.2523 5.36666L26.6076 1.72599C26.5003 1.48666 26.2623 1.33333 26.0003 1.33333C25.7383 1.33333 25.5003 1.48666 25.393 1.72533L23.7483 5.36666L19.9476 5.66866C19.687 5.68933 19.4623 5.86066 19.3736 6.10666C19.285 6.35266 19.3476 6.628 19.535 6.81066L22.3436 9.54866L21.3503 13.85C21.289 14.116 21.3963 14.3927 21.621 14.548C21.7356 14.6267 21.8676 14.6667 22.0003 14.6667C22.129 14.6667 22.2583 14.6293 22.3703 14.5547L26.0003 12.1347L29.6303 14.5547C29.8623 14.7093 30.167 14.7033 30.3936 14.5387C30.619 14.374 30.7183 14.0853 30.6416 13.8173L29.4223 9.55066L32.4463 6.82933C32.6443 6.65066 32.717 6.37199 32.6316 6.11933Z" fill="#FFBA08"/>
<path d="M50.6316 6.11933C50.5456 5.86733 50.3183 5.68933 50.053 5.66866L46.2523 5.36666L44.6076 1.72599C44.5003 1.48666 44.2623 1.33333 44.0003 1.33333C43.7383 1.33333 43.5003 1.48666 43.393 1.72533L41.7483 5.36666L37.9476 5.66866C37.687 5.68933 37.4623 5.86066 37.3736 6.10666C37.285 6.35266 37.3476 6.628 37.535 6.81066L40.3436 9.54866L39.3503 13.85C39.289 14.116 39.3963 14.3927 39.621 14.548C39.7356 14.6267 39.8676 14.6667 40.0003 14.6667C40.129 14.6667 40.2583 14.6293 40.3703 14.5547L44.0003 12.1347L47.6303 14.5547C47.8623 14.7093 48.167 14.7033 48.3936 14.5387C48.619 14.374 48.7183 14.0853 48.6416 13.8173L47.4223 9.55066L50.4463 6.82933C50.6443 6.65066 50.717 6.37199 50.6316 6.11933Z" fill="#FFBA08"/>
<path d="M68.6316 6.11933C68.5456 5.86733 68.3183 5.68933 68.053 5.66866L64.2523 5.36666L62.6076 1.72599C62.5003 1.48666 62.2623 1.33333 62.0003 1.33333C61.7383 1.33333 61.5003 1.48666 61.393 1.72533L59.7483 5.36666L55.9476 5.66866C55.687 5.68933 55.4623 5.86066 55.3736 6.10666C55.285 6.35266 55.3476 6.62799 55.535 6.81066L58.3436 9.54866L57.3503 13.85C57.289 14.116 57.3963 14.3927 57.621 14.548C57.7356 14.6267 57.8676 14.6667 58.0003 14.6667C58.129 14.6667 58.2583 14.6293 58.3703 14.5547L62.0003 12.1347L65.6303 14.5547C65.8623 14.7093 66.167 14.7033 66.3936 14.5387C66.619 14.374 66.7183 14.0853 66.6416 13.8173L65.4223 9.55066L68.4463 6.82933C68.6443 6.65066 68.717 6.372 68.6316 6.11933Z" fill="#FFBA08"/>
<path d="M76.3445 9.54866L75.3511 13.85C75.2898 14.116 75.3965 14.3927 75.6218 14.548C75.7358 14.6267 75.8678 14.6667 76.0005 14.6667C76.1291 14.6667 76.2585 14.6293 76.3705 14.5547L80.0005 12.1347L83.6305 14.5547C83.8625 14.7093 84.1671 14.7033 84.3938 14.5387C84.6191 14.374 84.7185 14.0853 84.6418 13.8173L83.4225 9.55066L86.4465 6.82933C86.6445 6.65066 86.7171 6.372 86.6318 6.12C86.5458 5.868 86.3185 5.69066 86.0531 5.66933L82.2525 5.36666L80.6078 1.72599C80.5005 1.48666 80.2625 1.33333 80.0005 1.33333C79.7385 1.33333 79.5005 1.48666 79.3931 1.72599L77.7485 5.36666L73.9478 5.66866C73.6865 5.68933 73.4618 5.86066 73.3738 6.10666C73.2845 6.35266 73.3485 6.62799 73.5351 6.81066L76.3445 9.54866ZM78.2465 6.66466C78.4885 6.64533 78.7018 6.496 78.8011 6.274L80.0005 3.61999L81.1998 6.274C81.2991 6.496 81.5125 6.64533 81.7545 6.66466L84.4025 6.87466L82.2218 8.83733C82.0325 9.00799 81.9571 9.27066 82.0265 9.516L82.8618 12.4393L80.3711 10.7787C80.1471 10.6287 79.8558 10.6287 79.6318 10.7787L77.0291 12.514L77.7291 9.48333C77.7811 9.25666 77.7118 9.01866 77.5451 8.85666L75.5198 6.882L78.2465 6.66466Z" fill="#B4B7C9"/>
</svg>
