<svg width="88" height="16" viewBox="0 0 88 16" fill="none" xmlns="http://www.w3.org/2000/svg">
<path d="M14.6316 6.11933C14.5456 5.86733 14.3183 5.68933 14.053 5.66866L10.2523 5.36666L8.60765 1.72599C8.50031 1.48666 8.26231 1.33333 8.00031 1.33333C7.73831 1.33333 7.50031 1.48666 7.39298 1.72533L5.74831 5.36666L1.94764 5.66866C1.68698 5.68933 1.46231 5.86066 1.37364 6.10666C1.28498 6.35266 1.34764 6.628 1.53498 6.81066L4.34364 9.54866L3.35031 13.85C3.28898 14.116 3.39631 14.3927 3.62098 14.548C3.73565 14.6267 3.86764 14.6667 4.00031 14.6667C4.12898 14.6667 4.25831 14.6293 4.37031 14.5547L8.00031 12.1347L11.6303 14.5547C11.8623 14.7093 12.167 14.7033 12.3936 14.5387C12.619 14.374 12.7183 14.0853 12.6416 13.8173L11.4223 9.55066L14.4463 6.82933C14.6443 6.65066 14.717 6.37199 14.6316 6.11933Z" fill="#FFBA08"/>
<path d="M32.6316 6.11933C32.5456 5.86733 32.3183 5.68933 32.053 5.66866L28.2523 5.36666L26.6076 1.72599C26.5003 1.48666 26.2623 1.33333 26.0003 1.33333C25.7383 1.33333 25.5003 1.48666 25.393 1.72533L23.7483 5.36666L19.9476 5.66866C19.687 5.68933 19.4623 5.86066 19.3736 6.10666C19.285 6.35266 19.3476 6.628 19.535 6.81066L22.3436 9.54866L21.3503 13.85C21.289 14.116 21.3963 14.3927 21.621 14.548C21.7356 14.6267 21.8676 14.6667 22.0003 14.6667C22.129 14.6667 22.2583 14.6293 22.3703 14.5547L26.0003 12.1347L29.6303 14.5547C29.8623 14.7093 30.167 14.7033 30.3936 14.5387C30.619 14.374 30.7183 14.0853 30.6416 13.8173L29.4223 9.55066L32.4463 6.82933C32.6443 6.65066 32.717 6.37199 32.6316 6.11933Z" fill="#FFBA08"/>
<path d="M50.6316 6.11933C50.5456 5.86733 50.3183 5.68933 50.053 5.66866L46.2523 5.36666L44.6076 1.72599C44.5003 1.48666 44.2623 1.33333 44.0003 1.33333C43.7383 1.33333 43.5003 1.48666 43.393 1.72533L41.7483 5.36666L37.9476 5.66866C37.687 5.68933 37.4623 5.86066 37.3736 6.10666C37.285 6.35266 37.3476 6.628 37.535 6.81066L40.3436 9.54866L39.3503 13.85C39.289 14.116 39.3963 14.3927 39.621 14.548C39.7356 14.6267 39.8676 14.6667 40.0003 14.6667C40.129 14.6667 40.2583 14.6293 40.3703 14.5547L44.0003 12.1347L47.6303 14.5547C47.8623 14.7093 48.167 14.7033 48.3936 14.5387C48.619 14.374 48.7183 14.0853 48.6416 13.8173L47.4223 9.55066L50.4463 6.82933C50.6443 6.65066 50.717 6.37199 50.6316 6.11933Z" fill="#FFBA08"/>
<path d="M68.6316 6.11933C68.5456 5.86733 68.3183 5.68933 68.053 5.66866L64.2523 5.36666L62.6076 1.72599C62.5003 1.48666 62.2623 1.33333 62.0003 1.33333C61.7383 1.33333 61.5003 1.48666 61.393 1.72533L59.7483 5.36666L55.9476 5.66866C55.687 5.68933 55.4623 5.86066 55.3736 6.10666C55.285 6.35266 55.3476 6.628 55.535 6.81066L58.3436 9.54866L57.3503 13.85C57.289 14.116 57.3963 14.3927 57.621 14.548C57.7356 14.6267 57.8676 14.6667 58.0003 14.6667C58.129 14.6667 58.2583 14.6293 58.3703 14.5547L62.0003 12.1347L65.6303 14.5547C65.8623 14.7093 66.167 14.7033 66.3936 14.5387C66.619 14.374 66.7183 14.0853 66.6416 13.8173L65.4223 9.55066L68.4463 6.82933C68.6443 6.65066 68.717 6.37199 68.6316 6.11933Z" fill="#FFBA08"/>
<path d="M86.6316 6.11933C86.5456 5.86733 86.3183 5.68933 86.053 5.66866L82.2523 5.36666L80.6076 1.72599C80.5003 1.48666 80.2623 1.33333 80.0003 1.33333C79.7383 1.33333 79.5003 1.48666 79.393 1.72533L77.7483 5.36666L73.9476 5.66866C73.687 5.68933 73.4623 5.86066 73.3736 6.10666C73.285 6.35266 73.3476 6.628 73.535 6.81066L76.3436 9.54866L75.3503 13.85C75.289 14.116 75.3963 14.3927 75.621 14.548C75.7356 14.6267 75.8676 14.6667 76.0003 14.6667C76.129 14.6667 76.2583 14.6293 76.3703 14.5547L80.0003 12.1347L83.6303 14.5547C83.8623 14.7093 84.167 14.7033 84.3936 14.5387C84.619 14.374 84.7183 14.0853 84.6416 13.8173L83.4223 9.55066L86.4463 6.82933C86.6443 6.65066 86.717 6.37199 86.6316 6.11933Z" fill="#FFBA08"/>
</svg>
