<svg width="60" height="60" viewBox="0 0 60 60" fill="none" xmlns="http://www.w3.org/2000/svg">
<rect width="60" height="60" rx="8" fill="#6366F1" fill-opacity="0.08"/>
<g clip-path="url(#clip0_4632_11154)">
<path d="M41.8127 37.9827V18.7342C41.8127 18.4327 41.5673 18.1873 41.2658 18.1873H38.8598C38.5582 18.1873 38.3129 18.4327 38.3129 18.7342V41.8106H42.9062C43.5104 41.8106 44 42.3002 44 42.9041C44 43.5082 43.5104 43.9979 42.9062 43.9979H17.0959C16.4918 43.9979 16.0021 43.5082 16.0021 42.9041V35.0844C16.0021 33.5769 17.2288 32.3503 18.7363 32.3503H21.1423C22.6501 32.3503 23.8765 33.5769 23.8765 35.0844V37.9827C23.8765 38.5868 23.3869 39.0764 22.783 39.0764C22.1788 39.0764 21.6892 38.5868 21.6892 37.9827V35.0844C21.6892 34.783 21.444 34.5376 21.1423 34.5376H18.7363C18.4349 34.5376 18.1894 34.783 18.1894 35.0844V41.8106H26.064V27.4835C26.064 25.9758 27.2904 24.7494 28.7982 24.7494H31.2042C32.7117 24.7494 33.9384 25.9758 33.9384 27.4835V37.9827C33.9384 38.5868 33.4487 39.0764 32.8446 39.0764C32.2407 39.0764 31.7509 38.5868 31.7509 37.9827V27.4835C31.7509 27.1819 31.5056 26.9366 31.2042 26.9366H28.7982C28.4965 26.9366 28.2513 27.1819 28.2513 27.4835V41.8106H36.1256V18.7342C36.1256 17.2266 37.3523 16 38.8598 16H41.2658C42.7734 16 44 17.2266 44 18.7342V37.9827C44 38.5868 43.5104 39.0764 42.9062 39.0764C42.3023 39.0764 41.8127 38.5868 41.8127 37.9827ZM20.3568 25.7882H18.7282C18.4594 25.7882 18.1873 25.6192 18.1873 25.2962C18.1873 24.6921 17.6977 24.2025 17.0938 24.2025C16.4896 24.2025 16 24.6921 16 25.2962C16 26.7649 17.1454 27.9221 18.6259 27.9731V28.5771C18.6259 29.1812 19.1155 29.6708 19.7196 29.6708C20.3235 29.6708 20.8131 29.1812 20.8131 28.5771V27.9437C22.3177 27.7335 23.4392 26.4962 23.4392 24.9542V24.8585C23.4392 23.1399 22.0564 21.7418 20.3568 21.7418H19.3547C18.8564 21.7418 18.4659 21.3613 18.4659 20.8753V20.7961C18.4659 20.3064 18.848 19.9373 19.3547 19.9373H20.3024C20.5809 19.9373 20.8689 20.1236 20.8689 20.4357C20.8689 21.0398 21.3587 21.5294 21.9626 21.5294C22.5668 21.5294 23.0564 21.0398 23.0564 20.4357C23.0564 19.1249 22.0885 18.0313 20.8131 17.797V17.0938C20.8131 16.4896 20.3235 16 19.7196 16C19.1155 16 18.6259 16.4896 18.6259 17.0938V17.8346C18.0845 17.9623 17.5887 18.2321 17.1867 18.6256C16.6009 19.1988 16.2786 19.9695 16.2786 20.7961V20.8753C16.2786 21.7014 16.6003 22.4728 17.1845 23.0476C17.7624 23.6161 18.5331 23.929 19.3547 23.929H20.3568C20.842 23.929 21.2517 24.3548 21.2517 24.8585V24.9542C21.2517 25.4297 20.867 25.7882 20.3568 25.7882Z" fill="url(#paint0_linear_4632_11154)"/>
</g>
<defs>
<linearGradient id="paint0_linear_4632_11154" x1="16" y1="30.0659" x2="44" y2="30.0659" gradientUnits="userSpaceOnUse">
<stop stop-color="#6366F1"/>
<stop offset="0.5" stop-color="#8B5CF6"/>
<stop offset="1" stop-color="#D946EF"/>
</linearGradient>
<clipPath id="clip0_4632_11154">
<rect width="28" height="28" fill="white" transform="translate(16 16)"/>
</clipPath>
</defs>
</svg>
