<svg width="60" height="60" viewBox="0 0 60 60" fill="none" xmlns="http://www.w3.org/2000/svg">
<rect width="60" height="60" rx="8" fill="#6366F1" fill-opacity="0.08"/>
<g clip-path="url(#clip0_4632_11161)">
<path d="M29.9452 44C29.7775 44 29.6101 43.9615 29.456 43.8846C29.3281 43.8206 26.2865 42.2784 23.1042 38.8192C21.2388 36.7919 19.7067 34.5186 18.5502 32.0625C17.1056 28.9949 16.2484 25.6363 16.0016 22.0801C15.9816 21.79 16.0779 21.504 16.2691 21.285C16.4605 21.0661 16.7309 20.9321 17.0213 20.9131C19.0244 20.7815 20.5937 19.1039 20.5937 17.0938C20.5937 16.4896 21.0833 16 21.6874 16H38.3124C38.9163 16 39.4062 16.4896 39.4062 17.0938C39.4062 19.1027 40.9744 20.7802 42.9765 20.9131C43.2713 20.9326 43.5455 21.0706 43.737 21.2955C43.9286 21.5204 44.0209 21.8133 43.9931 22.1075C43.619 26.0561 42.5287 29.7492 40.7522 33.0845C40.4681 33.6177 39.8057 33.8196 39.2727 33.5357C38.7395 33.2518 38.5376 32.5893 38.8215 32.0561C40.3096 29.2624 41.2767 26.1905 41.702 22.9116C39.4624 22.3211 37.7418 20.469 37.3189 18.1875H22.681C22.2563 20.4788 20.5232 22.3367 18.2697 22.9188C18.8445 28.4367 20.9893 33.2612 24.6529 37.2717C26.846 39.6722 28.9961 41.0885 29.939 41.6491C30.9708 41.0215 33.4662 39.3349 35.8955 36.4106C36.2815 35.9458 36.9709 35.8821 37.4357 36.2681C37.9003 36.6541 37.9642 37.3437 37.5782 37.8083C34.1209 41.9702 30.5921 43.8039 30.4434 43.8799C30.287 43.9601 30.1161 44 29.9452 44ZM30.7912 38.0809C31.1554 37.5988 31.0599 36.9131 30.5782 36.5488C29.6325 35.8343 28.7376 35.024 27.9182 34.1409C25.5356 31.5723 23.9191 28.5544 23.1072 25.1617C23.5447 24.8237 23.9563 24.4503 24.3364 24.0461C24.9665 23.3755 25.5047 22.6268 25.9357 21.8202C26.2203 21.2874 26.0191 20.6247 25.4863 20.34C24.9535 20.0554 24.2909 20.2567 24.0063 20.7894C23.666 21.426 23.2409 22.0175 22.7427 22.5478C22.3035 23.015 21.8113 23.4296 21.2803 23.7806C20.9077 24.0267 20.7221 24.4746 20.8116 24.9124C21.6443 28.9842 23.4955 32.5898 26.3145 35.6285C27.2207 36.6054 28.2115 37.5024 29.2593 38.2941C29.4567 38.4432 29.6883 38.5152 29.9179 38.5152C30.249 38.5152 30.5763 38.3655 30.7912 38.0809Z" fill="url(#paint0_linear_4632_11161)"/>
</g>
<defs>
<linearGradient id="paint0_linear_4632_11161" x1="15.999" y1="30.067" x2="43.9979" y2="30.067" gradientUnits="userSpaceOnUse">
<stop stop-color="#6366F1"/>
<stop offset="0.5" stop-color="#8B5CF6"/>
<stop offset="1" stop-color="#D946EF"/>
</linearGradient>
<clipPath id="clip0_4632_11161">
<rect width="28" height="28" fill="white" transform="translate(16 16)"/>
</clipPath>
</defs>
</svg>
