<svg width="94" height="26" viewBox="0 0 94 26" fill="none" xmlns="http://www.w3.org/2000/svg">
<g clip-path="url(#clip0_20005129_1432)">
<g clip-path="url(#clip1_20005129_1432)">
<g clip-path="url(#clip2_20005129_1432)">
<path d="M15.4866 12.2101C15.4866 9.56135 17.7279 8.27093 17.7958 8.20301C16.5054 6.36926 14.5358 6.16551 13.8566 6.0976C12.2266 5.89385 10.5966 7.04843 9.71372 7.04843C8.8308 7.04843 7.54039 6.0976 6.11414 6.0976C4.28039 6.0976 2.58247 7.11635 1.69955 8.74635C-0.202113 12.0063 1.22414 16.7605 3.05789 19.3413C4.00872 20.6318 5.02747 22.058 6.45372 21.9901C7.81205 21.9222 8.35539 21.1072 9.98539 21.1072C11.6154 21.1072 12.0908 21.9901 13.5171 21.9222C15.0112 21.9222 15.8941 20.6318 16.7771 19.3413C17.8637 17.8472 18.2712 16.4209 18.2712 16.353C18.3391 16.4209 15.4866 15.4022 15.4866 12.2101Z" fill="#3E4265"/>
<path d="M12.77 4.39974C13.5171 3.51682 13.9925 2.29432 13.8566 1.00391C12.77 1.07182 11.4796 1.75099 10.6646 2.63391C9.98539 3.38099 9.37414 4.67141 9.50997 5.89391C10.7325 5.96182 12.0229 5.28266 12.77 4.39974Z" fill="#3E4265"/>
<path d="M35.3183 21.8543H33.4166L32.3979 18.6622H28.6625L27.6437 21.8543H25.7421L29.3416 10.9197H31.5829L35.3183 21.8543ZM31.9904 17.3038L31.0396 14.4513C30.9716 14.1797 30.7679 13.5005 30.4962 12.4138C30.3604 12.8893 30.2246 13.5684 29.9529 14.4513L29.0021 17.3038H31.9904Z" fill="#3E4265"/>
<path d="M44.6229 17.8472C44.6229 19.2056 44.2833 20.2243 43.5363 21.0393C42.8571 21.7185 42.0421 22.058 41.0233 22.058C39.9367 22.058 39.1896 21.6506 38.7142 20.9035V25.0464H36.8804V16.5568C36.8804 15.7418 36.8804 14.8589 36.8125 13.976H38.3746L38.4425 15.1985C39.0538 14.2476 39.9367 13.7722 41.1592 13.7722C42.11 13.7722 42.925 14.1118 43.5363 14.8589C44.2833 15.6739 44.6229 16.6247 44.6229 17.8472ZM42.7892 17.9151C42.7892 17.1681 42.5854 16.4889 42.2458 16.0135C41.8383 15.4701 41.3629 15.2664 40.6838 15.2664C40.2083 15.2664 39.8688 15.4022 39.4613 15.6739C39.1217 15.9455 38.85 16.3531 38.7821 16.8285C38.7142 17.0322 38.7142 17.236 38.7142 17.3718V18.6622C38.7142 19.2055 38.9179 19.7489 39.2575 20.0885C39.5971 20.496 40.0725 20.6997 40.6838 20.6997C41.3629 20.6997 41.9062 20.4281 42.2458 19.9526C42.5854 19.4093 42.7892 18.7301 42.7892 17.9151Z" fill="#3E4265"/>
<path d="M53.9275 17.8472C53.9275 19.2056 53.5879 20.2243 52.8408 21.0393C52.1616 21.7185 51.3467 22.058 50.3279 22.058C49.2412 22.058 48.4942 21.6506 48.0187 20.9035V25.0464H46.185V16.5568C46.185 15.7418 46.185 14.8589 46.1171 13.976H47.6792L47.7471 15.1985C48.3583 14.2476 49.2412 13.7722 50.4637 13.7722C51.4146 13.7722 52.2296 14.1118 52.8408 14.8589C53.5879 15.6739 53.9275 16.6247 53.9275 17.8472ZM52.0937 17.9151C52.0937 17.1681 51.89 16.4889 51.5504 16.0135C51.1429 15.4701 50.6675 15.2664 49.9883 15.2664C49.5129 15.2664 49.1733 15.4022 48.7658 15.6739C48.4262 15.9455 48.1546 16.3531 48.0866 16.8285C48.0187 17.0322 48.0187 17.236 48.0187 17.3718V18.6622C48.0187 19.2055 48.2225 19.7489 48.5621 20.0885C48.9017 20.496 49.3771 20.6997 49.9883 20.6997C50.6675 20.6997 51.2108 20.4281 51.5504 19.9526C51.89 19.4093 52.0937 18.7301 52.0937 17.9151Z" fill="#3E4265"/>
<path d="M64.3866 18.7979C64.3866 19.7488 64.0471 20.4959 63.3679 21.1071C62.6208 21.7184 61.6021 22.0579 60.3116 22.0579C59.0891 22.0579 58.1383 21.8542 57.3912 21.3788L57.7987 19.8846C58.6137 20.36 59.4287 20.5638 60.3796 20.5638C61.0587 20.5638 61.6021 20.4279 61.9416 20.0884C62.3492 19.8167 62.485 19.4092 62.485 18.8659C62.485 18.3904 62.3491 18.0509 62.0096 17.7113C61.67 17.4396 61.1946 17.1 60.4475 16.8963C58.4779 16.1492 57.5271 15.1304 57.5271 13.7721C57.5271 12.8892 57.8666 12.1421 58.5458 11.5309C59.225 10.9875 60.1758 10.6479 61.3304 10.6479C62.3491 10.6479 63.2321 10.8517 63.9112 11.1913L63.4358 12.6175C62.8246 12.2779 62.0775 12.1421 61.2625 12.1421C60.6512 12.1421 60.1079 12.2779 59.7683 12.6175C59.4967 12.8892 59.2929 13.2288 59.2929 13.6363C59.2929 14.0438 59.4967 14.4513 59.8362 14.7229C60.1079 14.9946 60.6512 15.2663 61.4662 15.5379C62.4171 15.9454 63.1642 16.3529 63.5717 16.8963C64.115 17.3717 64.3866 18.0509 64.3866 18.7979Z" fill="#3E4265"/>
<path d="M70.2954 15.2663H68.3258V19.1375C68.3258 20.0883 68.6654 20.6317 69.3445 20.6317C69.6841 20.6317 69.9558 20.6317 70.1595 20.5638L70.2275 21.9221C69.8879 22.0579 69.4125 22.1258 68.8012 22.1258C68.122 22.1258 67.5108 21.9221 67.1033 21.5146C66.6958 21.1071 66.492 20.36 66.492 19.4092V15.4021H65.3375V14.1117H66.492V12.6854L68.2579 12.1421V14.1117H70.2275V15.2663H70.2954Z" fill="#3E4265"/>
<path d="M79.2604 17.8472C79.2604 19.0697 78.9208 20.0884 78.1737 20.8355C77.4266 21.6505 76.4079 22.058 75.1854 22.058C73.9629 22.058 73.08 21.6505 72.3329 20.9034C71.6537 20.1563 71.2462 19.1376 71.2462 17.983C71.2462 16.7605 71.5858 15.7418 72.3329 14.9947C73.08 14.2476 74.0308 13.8401 75.2533 13.8401C76.4758 13.8401 77.4266 14.2476 78.1058 14.9947C78.9208 15.6738 79.2604 16.6926 79.2604 17.8472ZM77.4266 17.9151C77.4266 17.168 77.2908 16.5568 76.9512 16.0134C76.5437 15.4022 76.0004 15.0626 75.3212 15.0626C74.5741 15.0626 74.0308 15.4022 73.6912 16.0134C73.3516 16.5568 73.2158 17.168 73.2158 17.9151C73.2158 18.6622 73.3516 19.2734 73.6912 19.8168C74.0987 20.428 74.642 20.7676 75.3212 20.7676C76.0004 20.7676 76.5437 20.428 76.9512 19.8168C77.2229 19.2734 77.4266 18.6622 77.4266 17.9151Z" fill="#3E4265"/>
<path d="M85.1012 15.5381C84.8975 15.5381 84.7616 15.4701 84.5579 15.4701C83.9466 15.4701 83.4033 15.6739 83.0637 16.1493C82.7921 16.5568 82.5883 17.1001 82.5883 17.7114V21.8543H80.7546V16.421C80.7546 15.538 80.7546 14.6551 80.6866 13.908H82.2487L82.3166 15.4022H82.3846C82.5883 14.8589 82.86 14.4514 83.2675 14.1797C83.675 13.9081 84.0825 13.7722 84.5579 13.7722C84.6937 13.7722 84.8975 13.7722 85.0333 13.7722V15.5381H85.1012Z" fill="#3E4265"/>
<path d="M93.1833 17.5754C93.1833 17.9149 93.1833 18.1866 93.1154 18.3904H87.6821C87.6821 19.1374 87.9537 19.7487 88.4971 20.1562C88.9725 20.4958 89.5158 20.6995 90.2629 20.6995C91.0779 20.6995 91.825 20.5637 92.4362 20.292L92.7079 21.5145C91.9608 21.8541 91.01 21.9899 89.9912 21.9899C88.7008 21.9899 87.75 21.6504 87.0029 20.9033C86.2558 20.1562 85.9162 19.2054 85.9162 17.9829C85.9162 16.7604 86.2558 15.8095 86.935 14.9945C87.6141 14.1795 88.565 13.7041 89.7875 13.7041C90.9421 13.7041 91.825 14.1116 92.4362 14.9945C92.9116 15.7416 93.1833 16.5566 93.1833 17.5754ZM91.4854 17.0999C91.4854 16.5566 91.3496 16.1491 91.1458 15.7416C90.8062 15.2662 90.3308 14.9945 89.7196 14.9945C89.1083 14.9945 88.6329 15.2662 88.2933 15.7416C88.0216 16.1491 87.8179 16.5566 87.75 17.0999H91.4854Z" fill="#3E4265"/>
<path d="M31.3792 4.19587C31.3792 5.1467 31.1075 5.89379 30.4962 6.3692C29.9529 6.84462 29.1379 7.04837 28.1192 7.04837C27.6437 7.04837 27.1683 7.04837 26.8287 6.98045V1.68295C27.3042 1.61504 27.7796 1.54712 28.3229 1.54712C29.2737 1.54712 30.0208 1.75087 30.4962 2.15837C31.1075 2.63379 31.3792 3.31295 31.3792 4.19587ZM30.4962 4.19587C30.4962 3.58462 30.2925 3.1092 29.9529 2.76962C29.6133 2.43004 29.1379 2.2942 28.4587 2.2942C28.1871 2.2942 27.9154 2.2942 27.7117 2.36212V6.3692C27.8475 6.3692 28.0512 6.3692 28.3229 6.3692C29.0021 6.3692 29.5454 6.16545 29.885 5.82587C30.2925 5.41837 30.4962 4.87504 30.4962 4.19587Z" fill="#3E4265"/>
<path d="M36.3371 5.0108C36.3371 5.62205 36.1333 6.09746 35.7937 6.50496C35.4541 6.91246 34.9108 7.11621 34.3675 7.11621C33.7562 7.11621 33.3487 6.91246 32.9412 6.57288C32.6016 6.16538 32.3979 5.68996 32.3979 5.14663C32.3979 4.53538 32.6016 4.05996 32.9412 3.65246C33.2808 3.24496 33.7562 3.10913 34.3675 3.10913C34.9787 3.10913 35.4541 3.31288 35.7937 3.65246C36.2012 3.92413 36.3371 4.39955 36.3371 5.0108ZM35.4541 5.0108C35.4541 4.67121 35.3862 4.33163 35.2504 4.05996C35.0466 3.72038 34.775 3.58455 34.4354 3.58455C34.0958 3.58455 33.8241 3.72038 33.6204 4.05996C33.4846 4.33163 33.4166 4.6033 33.4166 5.0108C33.4166 5.35038 33.4846 5.68996 33.6204 5.96163C33.8241 6.30121 34.0958 6.43705 34.4354 6.43705C34.775 6.43705 35.0466 6.30121 35.2504 5.96163C35.3862 5.68996 35.4541 5.4183 35.4541 5.0108Z" fill="#3E4265"/>
<path d="M42.9929 3.10913L41.7704 6.98038H40.9554L40.4121 5.28246C40.2762 4.87496 40.2083 4.46746 40.0725 4.05996C40.0046 4.46746 39.8687 4.87496 39.7329 5.28246L39.1896 6.98038H38.3746L37.22 3.10913H38.1029L38.5783 4.94288C38.7141 5.35038 38.7821 5.8258 38.85 6.16538C38.9179 5.8258 39.0537 5.4183 39.1896 4.94288L39.7329 3.10913H40.48L41.0233 4.94288C41.1591 5.4183 41.2271 5.8258 41.3629 6.2333C41.4308 5.8258 41.4987 5.4183 41.6346 4.94288L42.11 3.10913H42.9929Z" fill="#3E4265"/>
<path d="M47.6112 6.98043H46.7283V4.73918C46.7283 4.06001 46.4566 3.72043 45.9133 3.72043C45.6416 3.72043 45.4379 3.78834 45.302 3.99209C45.1662 4.19584 45.0304 4.39959 45.0304 4.67126V6.98043H44.1475V4.19584C44.1475 3.85626 44.1475 3.51668 44.1475 3.10918H44.8945L44.9625 3.72043C45.0983 3.51668 45.2341 3.38084 45.4379 3.24501C45.7095 3.10918 45.9133 3.04126 46.2529 3.04126C46.5925 3.04126 46.932 3.17709 47.2037 3.38084C47.5433 3.65251 47.6791 4.12793 47.6791 4.67126V6.98043H47.6112Z" fill="#3E4265"/>
<path d="M50.0563 6.98035H49.1733V1.34326H50.0563V6.98035Z" fill="#3E4265"/>
<path d="M55.2179 5.0108C55.2179 5.62205 55.0142 6.09746 54.6746 6.50496C54.335 6.91246 53.7917 7.11621 53.2483 7.11621C52.6371 7.11621 52.2296 6.91246 51.8221 6.57288C51.4825 6.16538 51.2787 5.68996 51.2787 5.14663C51.2787 4.53538 51.4825 4.05996 51.8221 3.65246C52.1617 3.24496 52.6371 3.10913 53.2483 3.10913C53.8596 3.10913 54.335 3.31288 54.6746 3.65246C55.0821 3.92413 55.2179 4.39955 55.2179 5.0108ZM54.335 5.0108C54.335 4.67121 54.2671 4.33163 54.1312 4.05996C53.9275 3.72038 53.6558 3.58455 53.3162 3.58455C52.9767 3.58455 52.705 3.72038 52.5012 4.05996C52.3654 4.33163 52.2975 4.6033 52.2975 5.0108C52.2975 5.35038 52.3654 5.68996 52.5012 5.96163C52.705 6.30121 52.9767 6.43705 53.3162 6.43705C53.6558 6.43705 53.9275 6.30121 54.1312 5.96163C54.2671 5.68996 54.335 5.4183 54.335 5.0108Z" fill="#3E4265"/>
<path d="M59.4966 6.98043H58.6816L58.6137 6.50501C58.3421 6.84459 57.9346 7.04834 57.4591 7.04834C57.0516 7.04834 56.78 6.91251 56.5762 6.70876C56.3725 6.50501 56.2366 6.23334 56.2366 5.89376C56.2366 5.41834 56.4404 5.07876 56.8479 4.80709C57.2554 4.53543 57.7987 4.46751 58.5458 4.46751V4.39959C58.5458 3.85626 58.2741 3.65251 57.7308 3.65251C57.3233 3.65251 56.9837 3.72043 56.7121 3.92418L56.5083 3.38084C56.8479 3.17709 57.3233 3.04126 57.8666 3.04126C58.8854 3.04126 59.4287 3.58459 59.4287 4.67126V6.09751C59.4966 6.43709 59.4966 6.77668 59.4966 6.98043ZM58.6137 5.62209V5.07876C57.6629 5.07876 57.1196 5.35043 57.1196 5.89376C57.1196 6.09751 57.1875 6.23334 57.3233 6.36918C57.4591 6.50501 57.595 6.50501 57.7308 6.50501C57.9346 6.50501 58.1383 6.43709 58.2741 6.30126C58.41 6.16543 58.5458 6.02959 58.6137 5.82584C58.6137 5.75793 58.6137 5.69001 58.6137 5.62209Z" fill="#3E4265"/>
<path d="M64.5904 6.98035H63.7754L63.7075 6.36909C63.4358 6.84451 63.0283 7.04826 62.417 7.04826C61.9416 7.04826 61.5341 6.91243 61.2625 6.50493C60.9229 6.16534 60.787 5.68993 60.787 5.07868C60.787 4.46743 60.9908 3.9241 61.3304 3.58451C61.67 3.24493 62.0775 3.04118 62.5529 3.04118C63.0962 3.04118 63.4358 3.24493 63.7075 3.58451V1.34326H64.5904V5.9616C64.5225 6.30118 64.5225 6.64076 64.5904 6.98035ZM63.6395 5.35034V4.67118C63.6395 4.53534 63.6395 4.46743 63.6395 4.39951C63.5716 4.19576 63.4358 4.05993 63.3 3.9241C63.1641 3.78826 62.9604 3.72035 62.6887 3.72035C62.3491 3.72035 62.0775 3.85618 61.9416 4.12785C61.7379 4.39951 61.67 4.7391 61.67 5.07868C61.67 5.48618 61.7379 5.75784 61.9416 6.02951C62.1454 6.30118 62.417 6.43701 62.6887 6.43701C62.9604 6.43701 63.232 6.30118 63.3679 6.09743C63.5716 5.82576 63.6395 5.62201 63.6395 5.35034Z" fill="#3E4265"/>
<path d="M72.1292 5.0108C72.1292 5.62205 71.9254 6.09746 71.5858 6.50496C71.2463 6.91246 70.7029 7.11621 70.1596 7.11621C69.5483 7.11621 69.1408 6.91246 68.7333 6.57288C68.3938 6.16538 68.19 5.68996 68.19 5.14663C68.19 4.53538 68.3938 4.05996 68.7333 3.65246C69.0729 3.24496 69.5483 3.10913 70.1596 3.10913C70.7708 3.10913 71.2463 3.31288 71.5858 3.65246C71.9933 3.92413 72.1292 4.39955 72.1292 5.0108ZM71.2463 5.0108C71.2463 4.67121 71.1783 4.33163 71.0425 4.05996C70.8388 3.72038 70.5671 3.58455 70.2275 3.58455C69.8879 3.58455 69.6163 3.72038 69.4125 4.05996C69.2767 4.33163 69.2088 4.6033 69.2088 5.0108C69.2088 5.35038 69.2767 5.68996 69.4125 5.96163C69.6163 6.30121 69.8879 6.43705 70.2275 6.43705C70.5671 6.43705 70.8388 6.30121 71.0425 5.96163C71.1104 5.68996 71.2463 5.4183 71.2463 5.0108Z" fill="#3E4265"/>
<path d="M76.8833 6.98043H76.0004V4.73918C76.0004 4.06001 75.7287 3.72043 75.1854 3.72043C74.9137 3.72043 74.71 3.78834 74.5741 3.99209C74.4383 4.19584 74.3025 4.39959 74.3025 4.67126V6.98043H73.4196V4.19584C73.4196 3.85626 73.4196 3.51668 73.4196 3.10918H74.1666L74.2346 3.72043C74.3704 3.51668 74.5062 3.38084 74.71 3.24501C74.9816 3.10918 75.1854 3.04126 75.525 3.04126C75.8646 3.04126 76.2041 3.17709 76.4758 3.38084C76.8154 3.65251 76.9512 4.12793 76.9512 4.67126V6.98043H76.8833Z" fill="#3E4265"/>
<path d="M82.86 3.72058H81.9092V5.62224C81.9092 6.09766 82.1129 6.36933 82.4525 6.36933C82.5883 6.36933 82.7242 6.36933 82.86 6.30141V6.98058C82.6562 7.04849 82.4525 7.04849 82.1808 7.04849C81.8412 7.04849 81.5696 6.91266 81.3658 6.70891C81.1621 6.50516 81.0942 6.16558 81.0942 5.69016V3.72058H80.4829V3.04141H81.0942V2.36224L81.9771 2.09058V3.04141H82.9279L82.86 3.72058Z" fill="#3E4265"/>
<path d="M87.5462 6.98035H86.6633V4.80701C86.6633 4.12785 86.3917 3.78826 85.8483 3.78826C85.4408 3.78826 85.1692 3.99201 85.0333 4.39951C85.0333 4.46743 84.9654 4.60326 84.9654 4.7391V7.04826H84.0825V1.34326H84.9654V3.65243C85.2371 3.24493 85.6446 3.04118 86.1879 3.04118C86.5275 3.04118 86.8671 3.17701 87.0708 3.38076C87.3425 3.65243 87.5462 4.12784 87.5462 4.67118V6.98035Z" fill="#3E4265"/>
<path d="M92.3683 4.87501C92.3683 5.01084 92.3683 5.14668 92.3683 5.28251H89.7196C89.7196 5.69001 89.8554 5.96168 90.1271 6.16543C90.3308 6.36918 90.6704 6.43709 91.01 6.43709C91.4175 6.43709 91.7571 6.36918 92.0967 6.23334L92.2325 6.84459C91.825 6.98043 91.4175 7.11626 90.8742 7.11626C90.2629 7.11626 89.7875 6.91251 89.4479 6.57293C89.1083 6.23334 88.9046 5.75793 88.9046 5.14668C88.9046 4.53543 89.0404 4.06001 89.38 3.65251C89.7196 3.24501 90.195 3.04126 90.8062 3.04126C91.3496 3.04126 91.825 3.24501 92.0967 3.65251C92.2325 3.99209 92.3683 4.39959 92.3683 4.87501ZM91.5533 4.60334C91.5533 4.33168 91.4854 4.12793 91.3496 3.92418C91.2137 3.65251 90.9421 3.58459 90.6704 3.58459C90.3987 3.58459 90.1271 3.72043 89.9912 3.92418C89.8554 4.12793 89.7875 4.33168 89.7196 4.60334H91.5533Z" fill="#3E4265"/>
</g>
</g>
</g>
<defs>
<clipPath id="clip0_20005129_1432">
<rect width="92.4" height="24.45" fill="white" transform="translate(0.799988 0.800049)"/>
</clipPath>
<clipPath id="clip1_20005129_1432">
<rect width="92.4" height="24.45" fill="white" transform="translate(0.799988 0.800049)"/>
</clipPath>
<clipPath id="clip2_20005129_1432">
<rect width="92.3667" height="24.45" fill="white" transform="translate(0.81665 0.800049)"/>
</clipPath>
</defs>
</svg>
