<svg width="106" height="26" viewBox="0 0 106 26" fill="none" xmlns="http://www.w3.org/2000/svg">
<g clip-path="url(#clip0_20005129_1459)">
<g clip-path="url(#clip1_20005129_1459)">
<g clip-path="url(#clip2_20005129_1459)">
<path d="M34.9637 3.87002C34.9637 4.63752 34.7335 5.17477 34.273 5.63527C33.7357 6.17252 33.1217 6.40277 32.2775 6.40277C31.51 6.40277 30.8192 6.17252 30.282 5.63527C29.7447 5.09802 29.4377 4.48402 29.4377 3.71652C29.4377 2.94902 29.7447 2.25827 30.282 1.79777C30.8192 1.26052 31.51 1.03027 32.2775 1.03027C32.6612 1.03027 33.045 1.10702 33.352 1.26052C33.7357 1.41402 33.966 1.56752 34.1962 1.87452L33.8125 2.18152C33.4287 1.72102 32.9682 1.56752 32.3542 1.56752C31.817 1.56752 31.2797 1.79777 30.896 2.18152C30.5122 2.56527 30.282 3.10252 30.282 3.71652C30.282 4.33052 30.5122 4.86777 30.896 5.25152C31.2797 5.63527 31.817 5.86552 32.3542 5.86552C32.9682 5.86552 33.4287 5.63527 33.8892 5.25152C34.1195 5.02127 34.273 4.63752 34.3497 4.17702H32.431V3.40952H35.0405C34.9637 3.56302 34.9637 3.71652 34.9637 3.87002Z" fill="#3E4265"/>
<path d="M39.1082 1.64427H36.6522V3.33277H38.878V3.94677H36.6522V5.63527H39.1082V6.24927H35.9615V1.03027H39.1082V1.64427Z" fill="#3E4265"/>
<path d="M42.0248 6.24927H41.334V1.64427H39.799V1.03027H43.483V1.64427H41.948V6.24927H42.0248Z" fill="#3E4265"/>
<path d="M46.1693 6.24927V1.03027H46.86V6.24927H46.1693Z" fill="#3E4265"/>
<path d="M49.93 6.24927H49.2393V1.64427H47.7043V1.03027H51.465V1.64427H49.93V6.24927Z" fill="#3E4265"/>
<path d="M58.4492 5.55861C57.912 6.09586 57.298 6.32611 56.4537 6.32611C55.6862 6.32611 54.9955 6.09586 54.4582 5.55861C53.921 5.02136 53.6907 4.40736 53.6907 3.63986C53.6907 2.87236 53.921 2.25836 54.4582 1.72111C54.9955 1.18386 55.6095 0.953613 56.4537 0.953613C57.2212 0.953613 57.912 1.18386 58.4492 1.72111C58.9865 2.25836 59.2167 2.87236 59.2167 3.63986C59.2167 4.40736 58.9865 5.02136 58.4492 5.55861ZM54.9955 5.09811C55.3792 5.48186 55.9165 5.71211 56.4537 5.71211C56.991 5.71211 57.5282 5.48186 57.912 5.09811C58.2957 4.71436 58.526 4.17711 58.526 3.56311C58.526 2.94911 58.2957 2.41186 57.912 2.02811C57.5282 1.64436 56.991 1.41411 56.4537 1.41411C55.8397 1.41411 55.3792 1.64436 54.9955 2.02811C54.6117 2.41186 54.3815 2.94911 54.3815 3.56311C54.3815 4.25386 54.6117 4.71436 54.9955 5.09811Z" fill="#3E4265"/>
<path d="M60.2145 6.24927V1.03027H61.0588L63.6683 5.09802V4.10027V1.03027H64.359V6.24927H63.6683L60.9053 1.95127V2.94902V6.24927H60.2145Z" fill="#3E4265"/>
<path d="M53.5372 13.9243C51.465 13.9243 49.6997 15.4593 49.6997 17.6083C49.6997 19.7573 51.3882 21.2923 53.5372 21.2923C55.6095 21.2923 57.3747 19.6805 57.3747 17.6083C57.3747 15.4593 55.6095 13.9243 53.5372 13.9243ZM53.5372 19.9108C52.386 19.9108 51.3882 18.9898 51.3882 17.685C51.3882 16.3803 52.386 15.4593 53.5372 15.4593C54.6885 15.4593 55.6862 16.3803 55.6862 17.685C55.6862 18.913 54.6885 19.9108 53.5372 19.9108ZM45.1715 13.9243C43.0992 13.9243 41.334 15.4593 41.334 17.6083C41.334 19.7573 43.0225 21.2923 45.1715 21.2923C47.2437 21.2923 49.009 19.6805 49.009 17.6083C49.009 15.4593 47.3205 13.9243 45.1715 13.9243ZM45.1715 19.9108C44.0202 19.9108 43.0225 18.9898 43.0225 17.685C43.0225 16.3803 44.0202 15.4593 45.1715 15.4593C46.3227 15.4593 47.3205 16.3803 47.3205 17.685C47.3205 18.913 46.3227 19.9108 45.1715 19.9108ZM35.2707 15.0755V16.6873H39.1082C39.0315 17.6083 38.7245 18.2223 38.264 18.6828C37.7267 19.22 36.8057 19.834 35.2707 19.834C32.8915 19.834 31.0495 17.992 31.0495 15.6128C31.0495 13.2335 32.8915 11.3915 35.2707 11.3915C36.5755 11.3915 37.4965 11.852 38.1872 12.5428L39.3385 11.3915C38.3407 10.4705 37.1127 9.77979 35.2707 9.77979C31.9705 9.77979 29.2842 12.3893 29.2842 15.536C29.2842 18.6828 32.0472 21.2923 35.2707 21.2923C37.036 21.2923 38.3407 20.755 39.4152 19.6805C40.4897 18.606 40.7967 17.1478 40.7967 15.9965C40.7967 15.6128 40.7967 15.3058 40.72 14.9988H35.2707V15.0755ZM75.8715 16.3035C75.5645 15.4593 74.5667 13.9243 72.5712 13.9243C70.5757 13.9243 68.964 15.4593 68.964 17.6083C68.964 19.6805 70.5757 21.2923 72.7247 21.2923C74.49 21.2923 75.4877 20.2178 75.8715 19.6805L74.5667 18.8363C74.1062 19.4503 73.569 19.834 72.7247 19.834C71.8805 19.834 71.2665 19.4503 70.8827 18.6828L75.9482 16.6105L75.8715 16.3035ZM70.6525 17.5315C70.5757 16.0733 71.8037 15.3825 72.648 15.3825C73.3387 15.3825 73.876 15.6895 74.0295 16.15L70.6525 17.5315ZM66.508 21.1388H68.1965V10.1635H66.508V21.1388ZM63.745 14.7685C63.2845 14.308 62.5937 13.9243 61.6727 13.9243C59.754 13.9243 57.9887 15.536 57.9887 17.685C57.9887 19.7573 59.754 21.369 61.6727 21.369C62.5937 21.369 63.2845 20.9853 63.6682 20.5248H63.745V21.062C63.745 22.5203 62.9775 23.211 61.7495 23.211C60.7517 23.211 60.061 22.5203 59.8307 21.9063L58.3725 22.4435C58.7562 23.4413 59.9075 24.6693 61.7495 24.6693C63.745 24.6693 65.3567 23.518 65.3567 20.8318V14.1545H63.745V14.7685ZM61.8262 19.9108C60.675 19.9108 59.6772 18.9898 59.6772 17.685C59.6772 16.3803 60.675 15.3825 61.8262 15.3825C62.9775 15.3825 63.8985 16.3035 63.8985 17.685C63.8985 18.913 62.9775 19.9108 61.8262 19.9108ZM83.7 10.1635H79.709V21.062H81.3975V16.9175H83.7C85.542 16.9175 87.384 15.6128 87.384 13.5405C87.384 11.4683 85.542 10.1635 83.7 10.1635ZM83.7 15.4593H81.3207V11.6985H83.7C84.928 11.6985 85.6955 12.6963 85.6955 13.5405C85.6955 14.4615 85.0047 15.4593 83.7 15.4593ZM94.0612 13.8475C92.8332 13.8475 91.6052 14.3848 91.068 15.536L92.5262 16.15C92.8332 15.536 93.4472 15.3825 94.0612 15.3825C94.9055 15.3825 95.8265 15.9198 95.8265 16.764V16.9175C95.5195 16.764 94.9055 16.457 94.0612 16.457C92.4495 16.457 90.8377 17.3013 90.8377 18.913C90.8377 20.3713 92.1425 21.2923 93.6007 21.2923C94.752 21.2923 95.366 20.8318 95.7497 20.2178H95.8265V21.062H97.4382V16.9175C97.4382 14.9988 95.98 13.8475 94.0612 13.8475ZM93.831 19.9108C93.2937 19.9108 92.5262 19.6805 92.5262 18.9898C92.5262 18.1455 93.4472 17.8385 94.2915 17.8385C95.059 17.8385 95.366 17.992 95.8265 18.2223C95.673 19.1433 94.8287 19.9108 93.831 19.9108ZM103.348 14.1545L101.429 18.913H101.352L99.357 14.1545H97.5917L100.585 20.755L98.8965 24.439H100.662L105.267 14.1545H103.348ZM88.305 21.1388H89.9935V10.1635H88.305V21.1388Z" fill="#3E4265"/>
<path d="M1.19375 1.49072C0.963498 1.72097 0.809998 2.18147 0.809998 2.71872V22.0597C0.809998 22.597 0.963498 23.0575 1.19375 23.2877L1.2705 23.3645L12.3992 12.5427V12.3125L1.19375 1.49072Z" fill="url(#paint0_linear_20005129_1459)"/>
<path d="M16.0833 16.0734L12.3993 12.4662V12.2359L16.0833 8.62866L16.16 8.70541L20.5348 11.1614C21.7628 11.8522 21.7628 13.0034 20.5348 13.6942L16.16 16.0734H16.0833Z" fill="url(#paint1_linear_20005129_1459)"/>
<path d="M16.16 16.0734L12.3993 12.3894L1.19376 23.2879C1.65426 23.6717 2.34501 23.7484 3.11251 23.2879L16.16 16.0734Z" fill="url(#paint2_linear_20005129_1459)"/>
<path d="M16.16 8.70538L3.11251 1.41413C2.34501 1.03038 1.65426 1.03038 1.19376 1.49088L12.3225 12.3894L16.16 8.70538Z" fill="url(#paint3_linear_20005129_1459)"/>
</g>
</g>
</g>
<defs>
<linearGradient id="paint0_linear_20005129_1459" x1="11.2935" y1="22.3519" x2="-3.3781" y2="7.3248" gradientUnits="userSpaceOnUse">
<stop stop-color="#00A0FF"/>
<stop offset="0.0066" stop-color="#00A1FF"/>
<stop offset="0.2601" stop-color="#00BEFF"/>
<stop offset="0.5122" stop-color="#00D2FF"/>
<stop offset="0.7604" stop-color="#00DFFF"/>
<stop offset="1" stop-color="#00E3FF"/>
</linearGradient>
<linearGradient id="paint1_linear_20005129_1459" x1="22.1828" y1="12.3706" x2="0.510456" y2="12.3706" gradientUnits="userSpaceOnUse">
<stop stop-color="#FFE000"/>
<stop offset="0.4087" stop-color="#FFBD00"/>
<stop offset="0.7754" stop-color="#FFA500"/>
<stop offset="1" stop-color="#FF9C00"/>
</linearGradient>
<linearGradient id="paint2_linear_20005129_1459" x1="6.69044" y1="17.612" x2="-13.2055" y2="-2.76596" gradientUnits="userSpaceOnUse">
<stop stop-color="#FF3A44"/>
<stop offset="1" stop-color="#C31162"/>
</linearGradient>
<linearGradient id="paint3_linear_20005129_1459" x1="-8.63262" y1="22.8265" x2="0.251803" y2="13.7268" gradientUnits="userSpaceOnUse">
<stop stop-color="#32A071"/>
<stop offset="0.0685" stop-color="#2DA771"/>
<stop offset="0.4762" stop-color="#15CF74"/>
<stop offset="0.8009" stop-color="#06E775"/>
<stop offset="1" stop-color="#00F076"/>
</linearGradient>
<clipPath id="clip0_20005129_1459">
<rect width="104.4" height="24.56" fill="white" transform="translate(0.799988 0.800049)"/>
</clipPath>
<clipPath id="clip1_20005129_1459">
<rect width="104.4" height="24.56" fill="white" transform="translate(0.799988 0.800049)"/>
</clipPath>
<clipPath id="clip2_20005129_1459">
<rect width="104.38" height="24.56" fill="white" transform="translate(0.809998 0.800049)"/>
</clipPath>
</defs>
</svg>
