<svg width="180" height="52" viewBox="0 0 180 52" fill="none" xmlns="http://www.w3.org/2000/svg">
<rect width="144" height="41.6" rx="8" transform="matrix(1.25 0 0 -1.25 0 52)" fill="#0B0F19"/>
<path d="M66.5046 14.9593C66.5046 15.9107 66.2128 16.6727 65.6381 17.2409C64.9773 17.9146 64.1166 18.2535 63.0619 18.2535C62.0539 18.2535 61.1933 17.9089 60.4873 17.2295C59.7798 16.5402 59.4268 15.6942 59.4268 14.6816C59.4268 13.669 59.7798 12.823 60.4873 12.1393C61.1933 11.4543 62.0539 11.1096 63.0619 11.1096C63.5637 11.1096 64.0422 11.2107 64.4988 11.3987C64.9539 11.5882 65.3244 11.8445 65.5928 12.1607L64.9831 12.7617C64.5148 12.2219 63.8774 11.9556 63.0619 11.9556C62.3267 11.9556 61.6893 12.2063 61.1481 12.7119C60.6127 13.2189 60.3443 13.8755 60.3443 14.6816C60.3443 15.4877 60.6127 16.15 61.1481 16.657C61.6893 17.1569 62.3267 17.4132 63.0619 17.4132C63.8424 17.4132 64.4988 17.1569 65.0166 16.6513C65.358 16.3166 65.552 15.8551 65.6031 15.2655H63.0619V14.4423H66.452C66.4929 14.6203 66.5046 14.7927 66.5046 14.9593Z" fill="white"/>
<path d="M71.8829 12.1051H68.6985V14.27H71.5693V15.0932H68.6985V17.258H71.8829V18.0969H67.797V11.2663H71.8829V12.1051Z" fill="white"/>
<path d="M75.6785 18.0969H74.777V12.1051H72.8238V11.2663H77.6332V12.1051H75.6785V18.0969Z" fill="white"/>
<path d="M81.1138 18.0969V11.2663H82.0138V18.0969H81.1138Z" fill="white"/>
<path d="M86.0035 18.0969H85.1093V12.1051H83.1487V11.2663H87.964V12.1051H86.0035V18.0969Z" fill="white"/>
<path d="M97.0695 17.2181C96.3795 17.9089 95.5247 18.2535 94.505 18.2535C93.4795 18.2535 92.6247 17.9089 91.9347 17.2181C91.2462 16.5288 90.9034 15.6828 90.9034 14.6816C90.9034 13.6804 91.2462 12.8344 91.9347 12.145C92.6247 11.4543 93.4795 11.1096 94.505 11.1096C95.5189 11.1096 96.3737 11.4543 97.0637 12.1507C97.758 12.8458 98.1008 13.686 98.1008 14.6816C98.1008 15.6828 97.758 16.5288 97.0695 17.2181ZM92.6014 16.6456C93.1207 17.1569 93.7523 17.4132 94.505 17.4132C95.2519 17.4132 95.8894 17.1569 96.4029 16.6456C96.9207 16.1343 97.1833 15.4777 97.1833 14.6816C97.1833 13.8854 96.9207 13.2289 96.4029 12.7176C95.8894 12.2063 95.2519 11.9499 94.505 11.9499C93.7523 11.9499 93.1207 12.2063 92.6014 12.7176C92.0835 13.2289 91.821 13.8854 91.821 14.6816C91.821 15.4777 92.0835 16.1343 92.6014 16.6456Z" fill="white"/>
<path d="M99.3655 18.0969V11.2663H100.46L103.861 16.5786H103.901L103.861 15.2655V11.2663H104.761V18.0969H103.822L100.26 12.5224H100.22L100.26 13.8413V18.0969H99.3655Z" fill="white"/>
<path d="M90.6821 28.0726C87.9411 28.0726 85.702 30.1092 85.702 32.9192C85.702 35.7065 87.9411 37.7645 90.6821 37.7645C93.4289 37.7645 95.6681 35.7065 95.6681 32.9192C95.6681 30.1092 93.4289 28.0726 90.6821 28.0726ZM90.6821 35.856C89.1781 35.856 87.8842 34.644 87.8842 32.9192C87.8842 31.1717 89.1781 29.9811 90.6821 29.9811C92.1861 29.9811 93.4858 31.1717 93.4858 32.9192C93.4858 34.644 92.1861 35.856 90.6821 35.856ZM79.816 28.0726C77.0692 28.0726 74.8358 30.1092 74.8358 32.9192C74.8358 35.7065 77.0692 37.7645 79.816 37.7645C82.5613 37.7645 84.7961 35.7065 84.7961 32.9192C84.7961 30.1092 82.5613 28.0726 79.816 28.0726ZM79.816 35.856C78.3105 35.856 77.0123 34.644 77.0123 32.9192C77.0123 31.1717 78.3105 29.9811 79.816 29.9811C81.3199 29.9811 82.6138 31.1717 82.6138 32.9192C82.6138 34.644 81.3199 35.856 79.816 35.856ZM66.8857 29.5581V31.6175H71.9227C71.7754 32.7683 71.3815 33.6143 70.7776 34.2039C70.0424 34.916 68.8973 35.7065 66.8857 35.7065C63.7859 35.7065 61.3585 33.2639 61.3585 30.2374C61.3585 27.2109 63.7859 24.7684 66.8857 24.7684C68.5618 24.7684 69.7813 25.4079 70.6813 26.2368L72.1678 24.7855C70.9089 23.6119 69.2343 22.7104 66.8857 22.7104C62.6349 22.7104 59.0625 26.0872 59.0625 30.2374C59.0625 34.3876 62.6349 37.7645 66.8857 37.7645C69.1832 37.7645 70.9089 37.0296 72.2655 35.6509C73.6557 34.2936 74.089 32.3852 74.089 30.8441C74.089 30.3656 74.0481 29.9255 73.9752 29.5581H66.8857ZM119.759 31.1546C119.349 30.0708 118.084 28.0726 115.508 28.0726C112.956 28.0726 110.83 30.0366 110.83 32.9192C110.83 35.6338 112.934 37.7645 115.753 37.7645C118.033 37.7645 119.349 36.4072 119.89 35.6167L118.198 34.5158C117.634 35.3219 116.865 35.856 115.753 35.856C114.649 35.856 113.857 35.3618 113.349 34.3876L119.988 31.7058L119.759 31.1546ZM112.991 32.7683C112.934 30.8997 114.477 29.9426 115.583 29.9426C116.449 29.9426 117.184 30.3656 117.43 30.9709L112.991 32.7683ZM107.595 37.4696H109.777V23.2274H107.595V37.4696ZM104.021 29.1522H103.948C103.458 28.5853 102.523 28.0726 101.338 28.0726C98.8525 28.0726 96.5798 30.2032 96.5798 32.9349C96.5798 35.6509 98.8525 37.7645 101.338 37.7645C102.523 37.7645 103.458 37.2475 103.948 36.6635H104.021V37.3586C104.021 39.2115 103.007 40.207 101.372 40.207C100.038 40.207 99.2113 39.267 98.87 38.4766L96.9722 39.2499C97.5192 40.5346 98.9677 42.1155 101.372 42.1155C103.93 42.1155 106.089 40.6457 106.089 37.0694V28.3674H104.021V29.1522ZM101.525 35.856C100.021 35.856 98.762 34.6269 98.762 32.9349C98.762 31.2273 100.021 29.9811 101.525 29.9811C103.007 29.9811 104.175 31.2273 104.175 32.9349C104.175 34.6269 103.007 35.856 101.525 35.856ZM129.976 23.2274H124.757V37.4696H126.933V32.0733H129.976C132.393 32.0733 134.764 30.3656 134.764 27.6496C134.764 24.935 132.387 23.2274 129.976 23.2274ZM130.033 30.0922H126.933V25.2085H130.033C131.658 25.2085 132.586 26.5259 132.586 27.6496C132.586 28.752 131.658 30.0922 130.033 30.0922ZM143.487 28.0455C141.914 28.0455 140.279 28.7235 139.607 30.226L141.538 31.0165C141.954 30.226 142.718 29.9697 143.526 29.9697C144.655 29.9697 145.801 30.6319 145.818 31.8012V31.9508C145.424 31.7286 144.581 31.3996 143.544 31.3996C141.464 31.3996 139.344 32.5176 139.344 34.6041C139.344 36.5126 141.048 37.7417 142.963 37.7417C144.428 37.7417 145.236 37.0965 145.744 36.3459H145.818V37.4469H147.92V31.9835C147.92 29.4584 145.989 28.0455 143.487 28.0455ZM143.224 35.8503C142.513 35.8503 141.521 35.5056 141.521 34.644C141.521 33.5416 142.758 33.1186 143.828 33.1186C144.787 33.1186 145.236 33.3251 145.818 33.5972C145.647 34.916 144.485 35.8503 143.224 35.8503ZM155.578 28.3574L153.077 34.5315H153.002L150.416 28.3574H148.069L151.955 36.9854L149.738 41.7865H152.012L158 28.3574H155.578ZM135.96 37.4696H138.142V23.2274H135.96V37.4696Z" fill="white"/>
<path d="M22.5412 11.8776C22.1984 12.2279 22 12.7734 22 13.4798V38.6773C22 39.3837 22.1984 39.9292 22.5412 40.2795L22.6258 40.3564L37.0877 26.2424V25.9091L22.6258 11.795L22.5412 11.8776Z" fill="url(#paint0_linear_4632_11280)"/>
<path d="M41.9022 30.9492L37.0869 26.2421V25.9089L41.908 21.2018L42.016 21.263L47.7255 24.4348C49.3549 25.3349 49.3549 26.8161 47.7255 27.7219L42.016 30.888L41.9022 30.9492Z" fill="url(#paint1_linear_4632_11280)"/>
<path d="M42.0157 30.888L37.0866 26.0756L22.54 40.2794C23.0812 40.8348 23.9638 40.9018 24.9674 40.3463L42.0157 30.888Z" fill="url(#paint2_linear_4632_11280)"/>
<path d="M42.0157 21.2632L24.9674 11.8049C23.9638 11.2552 23.0812 11.3221 22.54 11.8776L37.0866 26.0757L42.0157 21.2632Z" fill="url(#paint3_linear_4632_11280)"/>
<defs>
<linearGradient id="paint0_linear_4632_11280" x1="35.8037" y1="38.9397" x2="16.6876" y2="19.3604" gradientUnits="userSpaceOnUse">
<stop stop-color="#00A0FF"/>
<stop offset="0.0066" stop-color="#00A1FF"/>
<stop offset="0.2601" stop-color="#00BEFF"/>
<stop offset="0.5122" stop-color="#00D2FF"/>
<stop offset="0.7604" stop-color="#00DFFF"/>
<stop offset="1" stop-color="#00E3FF"/>
</linearGradient>
<linearGradient id="paint1_linear_4632_11280" x1="49.8473" y1="26.0739" x2="21.6097" y2="26.0739" gradientUnits="userSpaceOnUse">
<stop stop-color="#FFE000"/>
<stop offset="0.4087" stop-color="#FFBD00"/>
<stop offset="0.7754" stop-color="#FFA500"/>
<stop offset="1" stop-color="#FF9C00"/>
</linearGradient>
<linearGradient id="paint2_linear_4632_11280" x1="39.3354" y1="23.4594" x2="13.4124" y2="-3.09167" gradientUnits="userSpaceOnUse">
<stop stop-color="#FF3A44"/>
<stop offset="1" stop-color="#C31162"/>
</linearGradient>
<linearGradient id="paint3_linear_4632_11280" x1="18.8784" y1="48.6626" x2="30.4541" y2="36.8064" gradientUnits="userSpaceOnUse">
<stop stop-color="#32A071"/>
<stop offset="0.0685" stop-color="#2DA771"/>
<stop offset="0.4762" stop-color="#15CF74"/>
<stop offset="0.8009" stop-color="#06E775"/>
<stop offset="1" stop-color="#00F076"/>
</linearGradient>
</defs>
</svg>
