<svg width="196" height="100" viewBox="0 0 196 100" fill="none" xmlns="http://www.w3.org/2000/svg">
<rect x="0.5" y="0.5" width="195" height="99" rx="7.5" fill="white"/>
<rect x="0.5" y="0.5" width="195" height="99" rx="7.5" stroke="#E2E5F1"/>
<path d="M97.693 57.3741H92.573V43.6861H97.693V57.3741ZM93.073 56.8741H97.193V44.1861H93.073V56.8741ZM104.817 57.3741H99.8V43.6861H110.282C111.784 43.5645 113.279 43.9861 114.496 44.8741C115.02 45.3534 115.426 45.9473 115.683 46.6094C115.939 47.2715 116.039 47.9839 115.975 48.6911C116.05 49.9131 115.661 51.1183 114.886 52.0661C113.969 53.1181 112.443 53.6601 110.351 53.6791C109.824 53.6931 105.875 53.6791 104.82 53.6791L104.817 57.3741ZM100.297 56.8741H104.317V53.1741H104.568C104.619 53.1741 109.746 53.1901 110.339 53.1741C112.288 53.1571 113.689 52.6741 114.508 51.7311C115.198 50.8736 115.54 49.7883 115.468 48.6901C115.53 48.0565 115.444 47.4172 115.219 46.8218C114.993 46.2265 114.634 45.6911 114.168 45.2571C113.04 44.4472 111.659 44.067 110.275 44.1851H100.3L100.297 56.8741ZM109.22 50.6041H104.283V46.8781H109.253C109.605 46.8294 109.964 46.8705 110.296 46.9976C110.629 47.1247 110.923 47.3337 111.153 47.6051C111.362 47.952 111.46 48.3541 111.435 48.7581C111.454 49.1332 111.373 49.5066 111.2 49.8401C110.963 50.126 110.656 50.3461 110.309 50.4792C109.963 50.6123 109.588 50.6539 109.22 50.6001V50.6041ZM104.783 50.1041H109.22C110.04 50.1041 110.548 49.9331 110.773 49.5811C110.897 49.3253 110.953 49.0419 110.936 48.7581C110.958 48.4602 110.893 48.1622 110.75 47.9001L110.744 47.8911C110.506 47.5411 110.033 47.3781 109.253 47.3781H104.783V50.1041ZM125.1 57.5761C120.61 57.5761 117.93 56.4611 116.909 54.1681C116.742 53.7252 116.629 53.2639 116.571 52.7941L116.527 52.5061H121.869L121.904 52.7161C121.945 52.9293 122.036 53.13 122.168 53.3021C122.379 53.5571 123.083 53.9851 125.419 53.9851C128.227 53.9851 128.227 53.4921 128.227 53.2271C128.227 52.7801 127.902 52.6271 125.612 52.3831L125.177 52.3421C124.315 52.2611 123.225 52.1581 122.727 52.1151C118.527 51.7351 116.652 50.4301 116.652 47.8851C116.652 45.2121 119.843 43.4851 124.782 43.4851C128.811 43.4851 131.407 44.5471 132.496 46.6441C132.754 47.1319 132.928 47.6601 133.009 48.2061L133.044 48.4871H127.696L127.674 48.2611C127.653 48.0845 127.578 47.9188 127.458 47.7871C127.258 47.5191 126.626 47.0761 124.664 47.0761C122.255 47.0761 121.923 47.3841 121.923 47.7161C121.923 48.1591 122.684 48.3161 125.123 48.5771C126.14 48.6601 127.775 48.8281 128.335 48.8961C131.856 49.2781 133.427 50.5511 133.427 53.0251C133.428 55.1001 131.983 57.5761 125.1 57.5761ZM117.111 53.0061C117.161 53.3359 117.247 53.6591 117.368 53.9701C118.298 56.0591 120.828 57.0761 125.1 57.0761C128.672 57.0761 132.931 56.3761 132.931 53.0251C132.931 50.8321 131.541 49.7461 128.282 49.3931C127.722 49.3251 126.097 49.1581 125.082 49.0741C122.482 48.7921 121.425 48.6421 121.425 47.7161C121.425 46.7581 122.564 46.5761 124.666 46.5761C126.327 46.5761 127.4 46.8761 127.855 47.4811C127.979 47.6302 128.073 47.8021 128.131 47.9871H132.465C132.378 47.6004 132.24 47.2268 132.055 46.8761C131.055 44.9571 128.612 43.9851 124.784 43.9851C120.149 43.9851 117.154 45.5161 117.154 47.8851C117.154 50.1451 118.835 51.2611 122.773 51.6171C123.273 51.6601 124.362 51.7631 125.226 51.8451L125.664 51.8861C127.791 52.1101 128.729 52.2501 128.729 53.2271C128.729 54.2791 127.516 54.4851 125.421 54.4851C123.483 54.4851 122.259 54.1941 121.786 53.6211C121.64 53.4384 121.53 53.2297 121.462 53.0061H117.111ZM142.927 57.5591C137.707 57.5591 134.827 55.4481 134.827 51.6141V43.6861H139.879V51.6141C139.879 52.9291 141.056 53.6831 143.107 53.6831C145.067 53.6831 146.284 52.8961 146.284 51.6311V43.6861H151.284V52.0341C151.289 55.5451 148.24 57.5591 142.924 57.5591H142.927ZM135.327 44.1861V51.6141C135.327 56.3521 140.085 57.0591 142.927 57.0591C145.865 57.0591 150.792 56.4061 150.792 52.0341V44.1861H146.792V51.6311C146.792 53.1811 145.348 54.1831 143.115 54.1831C140.781 54.1831 139.387 53.2231 139.387 51.6141V44.1861H135.327ZM172.472 57.3741H167.704V51.1941L165 57.3741H160.841L158.165 51.2061V57.3741H153.38V43.6861H159.674L162.944 51.2331L166.372 43.6861H172.478L172.472 57.3741ZM168.204 56.8741H171.972V44.1861H166.69L162.928 52.4651L159.342 44.1861H153.876V56.8741H157.661V48.8001L161.161 56.8771H164.661L168.198 48.8121L168.204 56.8741ZM28.054 43.9361H23.5V57.1241H36.084V53.6131H28.054V43.9361ZM45.276 43.6361C39.463 43.6361 36.406 46.3911 36.406 50.4361C36.406 55.0061 39.615 57.3241 45.276 57.3241C51.508 57.3241 54.129 54.6361 54.129 50.4361C54.129 46.1711 51.172 43.6341 45.276 43.6341V43.6361ZM45.259 47.0631C45.6547 47.0612 46.0502 47.0843 46.443 47.1321L41.352 52.2231C41.1111 51.6782 40.9936 51.0867 41.008 50.4911C41.008 48.4221 42.05 47.0611 45.259 47.0611V47.0631ZM45.276 53.9511C44.8947 53.9528 44.5137 53.9314 44.135 53.8871L49.235 48.7871C49.4669 49.323 49.5779 49.9034 49.56 50.4871C49.56 52.5001 48.6 53.9491 45.276 53.9491V53.9511ZM63.152 52.1511H67.839C67.77 52.4764 67.6262 52.7811 67.419 53.0411C66.4473 53.8327 65.2072 54.2179 63.958 54.1161C63.3292 54.1834 62.6934 54.1147 62.0935 53.9147C61.4936 53.7148 60.9436 53.3882 60.481 52.9571C60.0071 52.262 59.782 51.4272 59.842 50.5881C59.7653 49.7088 60.0101 48.8316 60.531 48.1191C61.186 47.3791 62.295 47.0601 63.925 47.0601C64.9621 46.9742 65.9979 47.2406 66.865 47.8161C67.1383 48.0332 67.3426 48.325 67.453 48.6561H71.8C71.7684 48.1106 71.6372 47.5754 71.413 47.0771C70.372 44.9601 67.952 43.7001 63.837 43.7001C60.258 43.7001 57.856 44.7921 56.529 46.4391C55.6526 47.6285 55.2027 49.0785 55.252 50.5551C55.1953 52.0651 55.6336 53.5522 56.5 54.7901C57.811 56.4901 60.146 57.3261 62.952 57.3261C64.8175 57.4562 66.6703 56.9337 68.193 55.8481L68.311 57.1241H71.922V49.3121H63.152V52.1511ZM82.171 43.6331C76.359 43.6331 73.301 46.3881 73.301 50.4331C73.301 55.0031 76.509 57.3211 82.171 57.3211C88.404 57.3211 91.025 54.6331 91.025 50.4331C91.025 46.1711 88.068 43.6341 82.171 43.6341V43.6331ZM82.155 47.0601C82.5403 47.059 82.9253 47.081 83.308 47.1261L78.237 52.2001C78.0036 51.6612 77.89 51.0782 77.904 50.4911C77.9 48.4221 78.946 47.0611 82.155 47.0611V47.0601ZM82.171 53.9481C81.7796 53.9498 81.3885 53.927 81 53.8801L86.117 48.7621C86.3577 49.3051 86.4729 49.8954 86.454 50.4891C86.456 52.5001 85.5 53.9491 82.171 53.9491V53.9481Z" fill="#B4B7C9"/>
</svg>
