<svg width="196" height="100" viewBox="0 0 196 100" fill="none" xmlns="http://www.w3.org/2000/svg">
<rect x="0.5" y="0.5" width="195" height="99" rx="7.5" fill="white"/>
<rect x="0.5" y="0.5" width="195" height="99" rx="7.5" stroke="#E2E5F1"/>
<path d="M72.8701 44.0699H75.8701V56.1999H72.8701V44.0699ZM77.0601 51.6199C77.0601 48.6199 78.9001 46.8299 81.7401 46.8299C84.5801 46.8299 86.4201 48.6199 86.4201 51.6199C86.4201 54.6199 84.6201 56.4199 81.7401 56.4199C78.8601 56.4199 77.0601 54.6699 77.0601 51.6199ZM83.4101 51.6199C83.4101 49.9699 82.7601 48.9999 81.7401 48.9999C80.7201 48.9999 80.0801 49.9999 80.0801 51.6199C80.0801 53.2399 80.7101 54.2199 81.7401 54.2199C82.7701 54.2199 83.4101 53.2999 83.4101 51.6299V51.6199ZM87.5501 56.7899H90.4301C90.5672 57.0944 90.7989 57.3465 91.0908 57.5087C91.3827 57.6708 91.7192 57.7344 92.0501 57.6899C93.1901 57.6899 93.7901 57.0699 93.7901 56.1699V54.4899H93.7301C93.4911 55.0048 93.1032 55.4362 92.6166 55.7286C92.13 56.0209 91.5669 56.1607 91.0001 56.1299C88.8101 56.1299 87.3601 54.4599 87.3601 51.5899C87.3601 48.7199 88.7401 46.9099 91.0401 46.9099C91.6247 46.887 92.2023 47.0433 92.6956 47.3578C93.1889 47.6724 93.5743 48.1302 93.8001 48.6699V46.9999H96.8001V56.0999C96.8001 58.2899 94.8701 59.6499 92.0201 59.6499C89.3701 59.6499 87.7201 58.4599 87.5501 56.7999V56.7899ZM93.8001 51.6099C93.8001 50.1499 93.1301 49.2299 92.0701 49.2299C91.0101 49.2299 90.3601 50.1399 90.3601 51.6099C90.3601 53.0799 91.0001 53.9099 92.0701 53.9099C93.1401 53.9099 93.8001 53.0999 93.8001 51.6199V51.6099ZM97.9301 51.6099C97.9301 48.6099 99.7701 46.8199 102.61 46.8199C105.45 46.8199 107.3 48.6099 107.3 51.6099C107.3 54.6099 105.5 56.4099 102.61 56.4099C99.7201 56.4099 97.9301 54.6699 97.9301 51.6199V51.6099ZM104.28 51.6099C104.28 49.9599 103.63 48.9899 102.61 48.9899C101.59 48.9899 101 49.9999 101 51.6299C101 53.2599 101.63 54.2299 102.65 54.2299C103.67 54.2299 104.28 53.2999 104.28 51.6299V51.6099ZM108.44 44.8199C108.432 44.517 108.515 44.2186 108.676 43.9625C108.838 43.7064 109.073 43.5042 109.35 43.3814C109.627 43.2587 109.934 43.2209 110.232 43.273C110.531 43.325 110.807 43.4646 111.026 43.6738C111.246 43.8831 111.398 44.1527 111.463 44.4485C111.529 44.7443 111.505 45.0529 111.395 45.3353C111.285 45.6176 111.094 45.861 110.846 46.0345C110.597 46.208 110.303 46.3039 110 46.3099C109.799 46.3237 109.598 46.2958 109.408 46.228C109.219 46.1602 109.045 46.054 108.899 45.9159C108.752 45.7779 108.636 45.611 108.557 45.4258C108.478 45.2407 108.438 45.0412 108.44 44.8399V44.8199ZM108.44 47.0199H111.44V56.1999H108.44V47.0199ZM122.33 51.6099C122.33 54.6099 121 56.3199 118.72 56.3199C118.136 56.3574 117.553 56.2145 117.053 55.9105C116.552 55.6064 116.157 55.1559 115.92 54.6199H115.86V59.1399H112.86V46.9999H115.86V48.6399H115.92C116.146 48.095 116.533 47.6328 117.031 47.3161C117.528 46.9994 118.111 46.8436 118.7 46.8699C121 46.9099 122.37 48.6299 122.37 51.6299L122.33 51.6099ZM119.33 51.6099C119.33 50.1499 118.66 49.2199 117.61 49.2199C116.56 49.2199 115.89 50.1599 115.88 51.6099C115.87 53.0599 116.56 53.9899 117.61 53.9899C118.66 53.9899 119.33 53.0799 119.33 51.6299V51.6099ZM127.48 46.8099C129.97 46.8099 131.48 47.9899 131.55 49.8799H128.82C128.82 49.2299 128.28 48.8199 127.45 48.8199C126.62 48.8199 126.25 49.1399 126.25 49.6099C126.25 50.0799 126.58 50.2299 127.25 50.3699L129.17 50.7599C131 51.1499 131.78 51.8899 131.78 53.2799C131.78 55.1799 130.05 56.3999 127.5 56.3999C124.95 56.3999 123.28 55.1799 123.15 53.3099H126.04C126.13 53.9899 126.67 54.3899 127.55 54.3899C128.43 54.3899 128.83 54.0999 128.83 53.6199C128.83 53.1399 128.55 53.0399 127.83 52.8899L126.1 52.5199C124.31 52.1499 123.37 51.1999 123.37 49.7999C123.39 47.9999 125 46.8299 127.48 46.8299V46.8099ZM141.79 56.1799H138.9V54.4699H138.84C138.681 55.044 138.331 55.5465 137.847 55.894C137.363 56.2414 136.775 56.4129 136.18 56.3799C135.724 56.4058 135.268 56.3336 134.843 56.1681C134.417 56.0026 134.032 55.7478 133.714 55.4207C133.395 55.0937 133.151 54.702 132.997 54.2723C132.842 53.8426 132.782 53.3848 132.82 52.9299V46.9999H135.82V52.2399C135.82 53.3299 136.38 53.9099 137.31 53.9099C137.528 53.9103 137.744 53.8642 137.943 53.7745C138.141 53.6848 138.319 53.5536 138.463 53.3898C138.606 53.2259 138.714 53.0332 138.777 52.8246C138.84 52.6159 138.859 52.3961 138.83 52.1799V46.9999H141.83L141.79 56.1799ZM143.24 46.9999H146.14V48.7699H146.2C146.359 48.2034 146.702 47.7056 147.174 47.3546C147.646 47.0036 148.222 46.819 148.81 46.8299C149.409 46.782 150.003 46.9611 150.476 47.3317C150.948 47.7023 151.264 48.2371 151.36 48.8299H151.42C151.601 48.2308 151.977 47.7092 152.488 47.3471C152.998 46.985 153.615 46.803 154.24 46.8299C154.648 46.8162 155.054 46.8885 155.432 47.0421C155.811 47.1956 156.152 47.4271 156.435 47.7213C156.718 48.0156 156.936 48.3661 157.075 48.75C157.213 49.1339 157.27 49.5428 157.24 49.9499V56.1999H154.24V50.7499C154.24 49.7499 153.79 49.2899 152.95 49.2899C152.763 49.2883 152.577 49.3269 152.406 49.4031C152.235 49.4793 152.082 49.5913 151.958 49.7316C151.834 49.8719 151.741 50.0371 151.686 50.2162C151.631 50.3954 151.616 50.5842 151.64 50.7699V56.1999H148.79V50.7099C148.79 49.7899 148.34 49.2899 147.52 49.2899C147.331 49.29 147.143 49.3302 146.971 49.4079C146.798 49.4857 146.643 49.5992 146.518 49.7409C146.392 49.8826 146.298 50.0494 146.241 50.2303C146.185 50.4111 146.167 50.6018 146.19 50.7899V56.1999H143.19L143.24 46.9999Z" fill="#B4B7C9"/>
<path d="M64.4796 44.6199C63.9707 43.4563 63.2972 42.3718 62.4796 41.3999C61.2711 39.9202 59.7629 38.7133 58.0543 37.8585C56.3457 37.0037 54.4754 36.5205 52.5666 36.4406C50.6578 36.3606 48.7537 36.6859 46.9796 37.3949C45.2056 38.1039 43.6018 39.1805 42.2738 40.554C40.9458 41.9275 39.9238 43.5666 39.2749 45.3636C38.6261 47.1605 38.3651 49.0745 38.5093 50.9795C38.6534 52.8846 39.1994 54.7375 40.1112 56.4163C41.023 58.0952 42.2801 59.5619 43.7996 60.7199C44.7746 61.4778 45.852 62.0939 46.9996 62.5499C48.6086 63.2093 50.3307 63.5489 52.0696 63.5499C55.659 63.542 59.0988 62.1112 61.6351 59.5712C64.1713 57.0312 65.597 53.5893 65.5996 49.9999C65.6022 48.1484 65.2209 46.3165 64.4796 44.6199ZM52.0596 39.1899C53.6212 39.1897 55.1639 39.531 56.5796 40.1899C56.2344 40.3391 55.8714 40.4432 55.4996 40.4999C54.2762 40.677 53.1429 41.245 52.2688 42.1191C51.3947 42.9932 50.8267 44.1265 50.6496 45.3499C50.5719 46.036 50.2598 46.6743 49.7661 47.1571C49.2724 47.6399 48.6273 47.9375 47.9396 47.9999C46.7162 48.177 45.5829 48.745 44.7088 49.6191C43.8347 50.4932 43.2667 51.6265 43.0896 52.8499C43.0297 53.5023 42.7513 54.1154 42.2996 54.5899C41.5203 52.9432 41.1702 51.126 41.2819 49.3076C41.3936 47.4892 41.9635 45.7286 42.9386 44.1896C43.9136 42.6507 45.2622 41.3834 46.8587 40.5057C48.4552 39.6281 50.2478 39.1685 52.0696 39.1699L52.0596 39.1899ZM43.7896 56.9999C43.9096 56.8899 44.0296 56.7899 44.1496 56.6699C45.0393 55.8074 45.6103 54.6688 45.7696 53.4399C45.8342 52.7491 46.1426 52.1039 46.6396 51.6199C47.1179 51.1221 47.7616 50.8162 48.4496 50.7599C49.673 50.5828 50.8063 50.0148 51.6804 49.1407C52.5545 48.2666 53.1225 47.1333 53.2996 45.9099C53.3429 45.1874 53.6529 44.5067 54.1696 43.9999C54.6597 43.5117 55.3095 43.217 55.9996 43.1699C57.1235 43.0153 58.1717 42.5156 58.9996 41.7399C59.9423 42.522 60.7409 43.4628 61.3596 44.5199C61.3216 44.5712 61.278 44.6182 61.2296 44.6599C60.7523 45.1621 60.1094 45.4747 59.4196 45.5399C58.1949 45.7139 57.0599 46.2809 56.1852 47.1555C55.3106 48.0302 54.7436 49.1652 54.5696 50.3899C54.4991 51.0783 54.1928 51.7212 53.7026 52.2096C53.2123 52.6981 52.5683 53.002 51.8796 53.0699C50.6526 53.2456 49.5151 53.8125 48.6359 54.6862C47.7568 55.56 47.1829 56.694 46.9996 57.9199C46.9458 58.4086 46.7779 58.8779 46.5096 59.2899C45.4836 58.6807 44.5647 57.9071 43.7896 56.9999ZM52.0596 60.8599C51.0449 60.861 50.035 60.7196 49.0596 60.4399C49.3933 59.8179 49.6102 59.14 49.6996 58.4399C49.7697 57.753 50.0746 57.1113 50.5628 56.6231C51.051 56.1349 51.6927 55.83 52.3796 55.7599C53.6048 55.5848 54.7404 55.0177 55.6165 54.1434C56.4925 53.2692 57.062 52.1347 57.2396 50.9099C57.3097 50.223 57.6146 49.5813 58.1028 49.0931C58.591 48.6049 59.2327 48.3 59.9196 48.2299C60.8416 48.11 61.7204 47.7667 62.4796 47.2299C62.9012 48.8278 62.9511 50.501 62.6256 52.1212C62.3001 53.7414 61.6077 55.2656 60.6017 56.5767C59.5957 57.8877 58.3028 58.951 56.822 59.6848C55.3413 60.4186 53.7122 60.8035 52.0596 60.8099V60.8599Z" fill="#B4B7C9"/>
</svg>
