<svg width="196" height="100" viewBox="0 0 196 100" fill="none" xmlns="http://www.w3.org/2000/svg">
<rect x="0.5" y="0.5" width="195" height="99" rx="7.5" fill="white"/>
<rect x="0.5" y="0.5" width="195" height="99" rx="7.5" stroke="#E2E5F1"/>
<path d="M41.9414 62.8251H67.5914V37.175H41.9414V62.8251ZM62.6544 47.532H57.2344V42.112H62.6544V47.532ZM46.8774 42.112H52.3004V52.468H62.6544V57.8881H46.8774V42.112ZM84.2944 37.175C81.7578 37.175 79.2782 37.9272 77.1692 39.3365C75.0601 40.7457 73.4163 42.7487 72.4456 45.0921C71.4749 47.4356 71.221 50.0142 71.7158 52.502C72.2107 54.9898 73.4321 57.275 75.2257 59.0686C77.0193 60.8623 79.3045 62.0837 81.7923 62.5786C84.2802 63.0735 86.8588 62.8195 89.2023 61.8489C91.5458 60.8782 93.5487 59.2344 94.958 57.1252C96.3672 55.0161 97.1194 52.5365 97.1194 50C97.1154 46.5998 95.7629 43.3401 93.3586 40.9358C90.9543 38.5315 87.6946 37.179 84.2944 37.175ZM84.2944 57.8881C82.7343 57.8881 81.2092 57.4254 79.912 56.5586C78.6149 55.6919 77.6038 54.46 77.0068 53.0186C76.4098 51.5773 76.2536 49.9913 76.5579 48.4611C76.8623 46.931 77.6136 45.5255 78.7167 44.4224C79.8199 43.3192 81.2254 42.568 82.7555 42.2636C84.2856 41.9593 85.8716 42.1155 87.313 42.7125C88.7543 43.3095 89.9863 44.3205 90.853 45.6177C91.7198 46.9148 92.1824 48.4399 92.1824 50C92.1792 52.0911 91.3471 54.0956 89.8685 55.5742C88.3899 57.0528 86.3854 57.8848 84.2944 57.8881ZM143.013 37.175C140.476 37.1749 137.997 37.9269 135.888 39.336C133.779 40.7451 132.135 42.748 131.164 45.0914C130.193 47.4348 129.939 50.0136 130.434 52.5014C130.928 54.9893 132.15 57.2747 133.943 59.0683C135.737 60.862 138.022 62.0837 140.51 62.5786C142.997 63.0735 145.576 62.8195 147.92 61.8489C150.263 60.8783 152.266 59.2344 153.675 57.1253C155.085 55.0162 155.837 52.5366 155.837 50C155.833 46.6 154.481 43.3404 152.077 40.9361C149.673 38.5319 146.413 37.1793 143.013 37.175ZM143.013 57.8881C141.453 57.8883 139.928 57.4257 138.631 56.5591C137.334 55.6925 136.322 54.4606 135.725 53.0193C135.128 51.578 134.972 49.9919 135.276 48.4617C135.58 46.9316 136.331 45.526 137.434 44.4227C138.538 43.3195 139.943 42.5681 141.473 42.2637C143.003 41.9592 144.589 42.1154 146.03 42.7124C147.472 43.3094 148.704 44.3204 149.571 45.6176C150.437 46.9148 150.9 48.4399 150.9 50C150.897 52.0909 150.065 54.0952 148.586 55.5738C147.108 57.0524 145.104 57.8846 143.013 57.8881ZM113.653 37.175C111.117 37.175 108.637 37.9272 106.528 39.3365C104.419 40.7457 102.775 42.7487 101.805 45.0921C100.834 47.4356 100.58 50.0142 101.075 52.502C101.57 54.9898 102.791 57.275 104.585 59.0686C106.378 60.8623 108.664 62.0837 111.151 62.5786C113.639 63.0735 116.218 62.8195 118.561 61.8489C120.905 60.8782 122.908 59.2344 124.317 57.1252C125.726 55.0161 126.478 52.5365 126.478 50C126.474 46.5998 125.122 43.3401 122.718 40.9358C120.313 38.5315 117.054 37.179 113.653 37.175ZM113.653 57.8881C112.2 57.8888 110.774 57.4879 109.534 56.7295C108.294 55.9712 107.288 54.8852 106.626 53.591C105.965 52.2968 105.673 50.8448 105.785 49.3956C105.896 47.9463 106.406 46.556 107.257 45.3781C108.109 44.2003 109.27 43.2807 110.611 42.7208C111.952 42.1608 113.422 41.9825 114.859 42.2053C116.295 42.4281 117.642 43.0435 118.751 43.9835C119.859 44.9234 120.687 46.1515 121.141 47.532H113.653V52.468H121.141C120.621 54.0433 119.617 55.4148 118.273 56.3876C116.929 57.3605 115.313 57.8853 113.653 57.8881Z" fill="#B4B7C9"/>
</svg>
