<svg width="196" height="100" viewBox="0 0 196 100" fill="none" xmlns="http://www.w3.org/2000/svg">
<rect x="0.5" y="0.5" width="195" height="99" rx="7.5" fill="white"/>
<rect x="0.5" y="0.5" width="195" height="99" rx="7.5" stroke="#E2E5F1"/>
<path d="M46.4498 39.6499V35.3999H33.0498V64.5999H46.4498V60.3499C43.7048 60.3499 41.0722 59.2594 39.1312 57.3184C37.1902 55.3774 36.0998 52.7449 36.0998 49.9999C36.0998 47.2549 37.1902 44.6223 39.1312 42.6814C41.0722 40.7404 43.7048 39.6499 46.4498 39.6499Z" fill="#B4B7C9"/>
<path d="M46.4502 39.6499V60.3499C49.1952 60.3499 51.8278 59.2594 53.7688 57.3184C55.7098 55.3774 56.8002 52.7449 56.8002 49.9999C56.8002 47.2549 55.7098 44.6223 53.7688 42.6814C51.8278 40.7404 49.1952 39.6499 46.4502 39.6499Z" fill="#B4B7C9"/>
<path d="M64.3203 42.25H67.3203V56.7H64.3203V42.25Z" fill="#B4B7C9"/>
<path d="M69.0005 51.7499C69.0005 50.7103 69.3092 49.6941 69.8874 48.8301C70.4656 47.9661 71.2873 47.2932 72.2484 46.8967C73.2095 46.5003 74.2666 46.3981 75.2858 46.6031C76.305 46.8081 77.2404 47.3111 77.9734 48.0483C78.7064 48.7856 79.2041 49.7238 79.4033 50.7442C79.6024 51.7646 79.4942 52.8211 79.0922 53.7799C78.6902 54.7386 78.0127 55.5565 77.1454 56.1297C76.2781 56.703 75.2601 57.0058 74.2205 56.9999C73.531 57.0053 72.8473 56.873 72.2096 56.6106C71.5719 56.3483 70.9929 55.9613 70.5067 55.4724C70.0205 54.9834 69.6369 54.4022 69.3782 53.763C69.1196 53.1238 68.9912 52.4394 69.0005 51.7499ZM76.5205 51.7499C76.5087 51.3017 76.365 50.8669 76.1074 50.5C75.8498 50.133 75.4898 49.8501 75.0722 49.6867C74.6547 49.5233 74.1983 49.4866 73.7601 49.5813C73.3218 49.6759 72.9212 49.8976 72.6083 50.2188C72.2954 50.5399 72.0841 50.9461 72.0009 51.3867C71.9177 51.8273 71.9662 52.2826 72.1404 52.6957C72.3146 53.1088 72.6067 53.4615 72.9803 53.7094C73.3538 53.9574 73.7921 54.0897 74.2405 54.0899C74.5458 54.0959 74.849 54.0388 75.1312 53.9222C75.4134 53.8057 75.6685 53.6322 75.8806 53.4126C76.0927 53.193 76.2572 52.9319 76.3639 52.6459C76.4706 52.3598 76.5171 52.0548 76.5005 51.7499H76.5205Z" fill="#B4B7C9"/>
<path d="M91.3103 46.8001V56.2101C91.3103 59.5301 88.7103 60.9401 86.0803 60.9401C85.1526 61.0162 84.2221 60.8319 83.3936 60.4079C82.565 59.9839 81.8712 59.337 81.3903 58.5401L83.9203 57.0801C84.1253 57.4935 84.4514 57.8345 84.8552 58.0578C85.259 58.2811 85.7212 58.3761 86.1803 58.3301C86.4728 58.3661 86.7696 58.3371 87.0495 58.2451C87.3295 58.153 87.5856 58.0003 87.7996 57.7977C88.0137 57.5951 88.1803 57.3478 88.2876 57.0733C88.3949 56.7989 88.4402 56.5041 88.4203 56.2101V55.3001C88.0712 55.7234 87.6282 56.0594 87.1266 56.2816C86.6249 56.5038 86.0784 56.606 85.5303 56.5801C84.2042 56.5801 82.9325 56.0533 81.9948 55.1156C81.0571 54.178 80.5303 52.9062 80.5303 51.5801C80.5303 50.254 81.0571 48.9823 81.9948 48.0446C82.9325 47.1069 84.2042 46.5801 85.5303 46.5801C86.0784 46.5542 86.6249 46.6564 87.1266 46.8786C87.6282 47.1008 88.0712 47.4368 88.4203 47.8601V46.8601L91.3103 46.8001ZM88.4203 51.5501C88.4402 51.0717 88.3166 50.5982 88.0653 50.1906C87.814 49.783 87.4466 49.4599 87.0101 49.2628C86.5737 49.0657 86.0884 49.0037 85.6164 49.0847C85.1445 49.1657 84.7075 49.386 84.3618 49.7173C84.0161 50.0486 83.7774 50.4758 83.6764 50.9439C83.5754 51.412 83.6167 51.8995 83.795 52.3439C83.9734 52.7883 84.2806 53.1692 84.6771 53.4376C85.0737 53.706 85.5415 53.8497 86.0203 53.8501C86.3328 53.8726 86.6465 53.8293 86.9411 53.7231C87.2358 53.6168 87.505 53.4499 87.7311 53.2331C87.9573 53.0164 88.1355 52.7546 88.2542 52.4647C88.3729 52.1748 88.4295 51.8632 88.4203 51.5501Z" fill="#B4B7C9"/>
<path d="M93.0003 51.75C93.0003 50.7112 93.3085 49.6958 93.8858 48.8322C94.4631 47.9686 95.2837 47.2957 96.2436 46.8987C97.2035 46.5016 98.2595 46.3982 99.2782 46.6016C100.297 46.805 101.232 47.306 101.966 48.0412C102.7 48.7765 103.199 49.7129 103.401 50.7319C103.602 51.751 103.497 52.8069 103.098 53.766C102.699 54.7252 102.024 55.5444 101.16 56.1201C100.295 56.6958 99.2791 57.002 98.2403 57C97.5495 57.0067 96.8643 56.8754 96.2249 56.6138C95.5855 56.3522 95.0046 55.9656 94.5166 55.4766C94.0285 54.9876 93.643 54.4061 93.3826 53.7662C93.1223 53.1263 92.9923 52.4408 93.0003 51.75ZM100.52 51.75C100.509 51.3014 100.365 50.8662 100.107 50.499C99.8485 50.1319 99.4878 49.849 99.0697 49.6859C98.6516 49.5228 98.1947 49.4867 97.7562 49.5822C97.3177 49.6776 96.9171 49.9004 96.6046 50.2225C96.2921 50.5446 96.0816 50.9518 95.9996 51.393C95.9175 51.8342 95.9674 52.2898 96.1431 52.7027C96.3188 53.1157 96.6125 53.4676 96.9874 53.7144C97.3622 53.9611 97.8015 54.0918 98.2503 54.09C98.5556 54.096 98.8588 54.0389 99.141 53.9223C99.4232 53.8058 99.6783 53.6323 99.8904 53.4127C100.103 53.1931 100.267 52.932 100.374 52.646C100.48 52.3599 100.527 52.0549 100.51 51.75H100.52Z" fill="#B4B7C9"/>
<path d="M104.87 44.1501C104.87 43.7981 104.975 43.4539 105.17 43.1612C105.366 42.8685 105.644 42.6403 105.969 42.5056C106.294 42.3709 106.652 42.3356 106.997 42.4043C107.343 42.473 107.66 42.6425 107.909 42.8915C108.158 43.1404 108.327 43.4576 108.396 43.8028C108.465 44.1481 108.429 44.506 108.295 44.8313C108.16 45.1565 107.932 45.4345 107.639 45.6301C107.346 45.8257 107.002 45.9301 106.65 45.9301C106.18 45.9249 105.73 45.7357 105.397 45.403C105.065 45.0703 104.875 44.6206 104.87 44.1501ZM105.16 46.8001H108.16V56.7001H105.16V46.8001Z" fill="#B4B7C9"/>
<path d="M121 51.7501C121.034 52.4085 120.937 53.0671 120.715 53.6879C120.493 54.3087 120.151 54.8795 119.708 55.3674C119.264 55.8554 118.729 56.2508 118.132 56.531C117.535 56.8112 116.889 56.9706 116.23 57.0001C115.672 57.0373 115.111 56.9478 114.592 56.7383C114.073 56.5287 113.607 56.2046 113.23 55.7901V60.6801H110.23V46.8001H113.23V47.7301C113.608 47.3168 114.073 46.9942 114.593 46.7864C115.112 46.5785 115.672 46.4909 116.23 46.5301C116.886 46.5596 117.53 46.7181 118.125 46.9964C118.72 47.2747 119.254 47.6675 119.697 48.1522C120.14 48.6369 120.483 49.2041 120.706 49.8215C120.93 50.4388 121.03 51.0941 121 51.7501ZM118 51.7501C117.989 51.2856 117.84 50.835 117.573 50.4547C117.306 50.0744 116.933 49.7812 116.5 49.6121C116.068 49.4429 115.595 49.4053 115.141 49.5038C114.687 49.6023 114.272 49.8327 113.948 50.166C113.624 50.4993 113.406 50.9207 113.321 51.3775C113.236 51.8342 113.288 52.3059 113.469 52.7335C113.651 53.161 113.955 53.5254 114.343 53.781C114.731 54.0366 115.186 54.1719 115.65 54.1701C115.969 54.1836 116.286 54.1297 116.582 54.0119C116.878 53.8941 117.146 53.7151 117.368 53.4866C117.59 53.2581 117.761 52.9852 117.87 52.686C117.979 52.3867 118.023 52.0678 118 51.7501Z" fill="#B4B7C9"/>
<path d="M130.13 53.73C130.13 56.01 128.13 56.98 126.01 56.98C125.145 57.0578 124.277 56.8745 123.518 56.4538C122.758 56.0331 122.143 55.3943 121.75 54.62L124.33 53.16C124.432 53.5168 124.654 53.8277 124.958 54.0407C125.262 54.2537 125.63 54.3558 126 54.33C126.71 54.33 127.07 54.11 127.07 53.71C127.07 52.62 122.2 53.2 122.2 49.77C122.2 47.61 124.02 46.53 126.08 46.53C126.863 46.4949 127.641 46.6726 128.331 47.0441C129.021 47.4156 129.598 47.9671 130 48.64L127.42 50C127.306 49.742 127.12 49.5226 126.884 49.3682C126.648 49.2138 126.372 49.1311 126.09 49.13C125.57 49.13 125.26 49.33 125.26 49.68C125.26 50.82 130.13 50.07 130.13 53.73Z" fill="#B4B7C9"/>
<path d="M141 46.8V56.7H138V55.77C137.659 56.1817 137.226 56.5074 136.737 56.7211C136.247 56.9348 135.714 57.0303 135.18 57C133.18 57 131.47 55.57 131.47 52.9V46.8H134.47V52.45C134.446 52.6862 134.474 52.9247 134.552 53.1491C134.63 53.3734 134.755 53.5782 134.919 53.7494C135.084 53.9205 135.284 54.0539 135.505 54.1404C135.726 54.2268 135.963 54.2642 136.2 54.25C137.28 54.25 138.04 53.61 138.04 52.25V46.8H141Z" fill="#B4B7C9"/>
<path d="M158 50.62V56.7H155V50.88C155 49.88 154.53 49.26 153.58 49.26C152.63 49.26 152.03 49.95 152.03 51.12V56.7H149.03V50.88C149.03 49.88 148.56 49.26 147.61 49.26C146.66 49.26 146.06 49.95 146.06 51.12V56.7H143.06V46.8H146.06V47.71C146.371 47.308 146.776 46.9896 147.241 46.7836C147.705 46.5776 148.214 46.4904 148.72 46.53C149.227 46.5035 149.733 46.6095 150.187 46.8374C150.641 47.0653 151.028 47.4074 151.31 47.83C151.64 47.3884 152.076 47.0376 152.578 46.8103C153.079 46.5829 153.631 46.4865 154.18 46.53C156.52 46.53 158 48.15 158 50.62Z" fill="#B4B7C9"/>
<path d="M160.52 46.7401C161.735 46.7401 162.72 45.7551 162.72 44.5401C162.72 43.3251 161.735 42.3401 160.52 42.3401C159.305 42.3401 158.32 43.3251 158.32 44.5401C158.32 45.7551 159.305 46.7401 160.52 46.7401Z" fill="#B4B7C9"/>
</svg>
