<svg width="218" height="123" viewBox="0 0 218 123" fill="none" xmlns="http://www.w3.org/2000/svg">
<g filter="url(#filter0_dd_4632_11228)">
<rect x="11" y="7" width="196" height="100" rx="8" fill="white"/>
<rect x="11.5" y="7.5" width="195" height="99" rx="7.5" stroke="#E2E5F1"/>
<path d="M73.5197 52.25C73.8797 52.25 73.9997 52.38 73.9997 52.73V60.65H78.0697C78.4197 60.65 78.5497 60.78 78.5497 61.13V61.83C78.5497 62.18 78.4197 62.31 78.0697 62.31H72.7097C72.3597 62.31 72.2197 62.18 72.2197 61.83V52.73C72.2197 52.38 72.3597 52.25 72.7097 52.25H73.5197Z" fill="#B4B7C9"/>
<path d="M82.0996 55.74C82.0996 53.43 83.5596 52.04 86.0996 52.04C88.6396 52.04 90.0996 53.43 90.0996 55.74V58.82C90.0996 61.13 88.6296 62.52 86.0996 62.52C83.5696 62.52 82.0996 61.13 82.0996 58.82V55.74ZM88.4196 55.74C88.4196 54.44 87.6096 53.74 86.1496 53.74C84.6896 53.74 83.8896 54.45 83.8896 55.74V58.84C83.8896 60.15 84.6896 60.84 86.1496 60.84C87.6096 60.84 88.4196 60.12 88.4196 58.84V55.74Z" fill="#B4B7C9"/>
<path d="M102.01 56.8C102.4 56.8 102.49 56.93 102.49 57.28V59.18C102.5 59.6275 102.411 60.0718 102.227 60.4801C102.044 60.8885 101.771 61.2506 101.43 61.54C100.581 62.2155 99.5118 62.5506 98.4297 62.48C95.8397 62.48 94.4297 61.09 94.4297 58.78V55.68C94.4297 53.4 95.8897 52 98.4297 52C100.43 52 101.73 52.79 102.28 54.37C102.31 54.4294 102.327 54.4951 102.328 54.5619C102.329 54.6288 102.314 54.695 102.285 54.7551C102.256 54.8153 102.213 54.8679 102.16 54.9087C102.107 54.9494 102.045 54.9773 101.98 54.99L101.2 55.26C100.86 55.38 100.72 55.31 100.6 54.96C100.434 54.5329 100.131 54.1731 99.7377 53.9377C99.3447 53.7023 98.8845 53.6045 98.4297 53.66C96.9597 53.66 96.1597 54.37 96.1597 55.66V58.84C96.1597 60.15 96.9697 60.84 98.4297 60.84C99.8897 60.84 100.79 60.17 100.79 59.19V58.45H98.6197C98.2597 58.45 98.1297 58.31 98.1297 57.96V57.28C98.1297 56.93 98.2597 56.8 98.6197 56.8H102.01Z" fill="#B4B7C9"/>
<path d="M106.62 55.74C106.62 53.43 108.08 52.04 110.62 52.04C113.16 52.04 114.62 53.43 114.62 55.74V58.82C114.62 61.13 113.15 62.52 110.62 62.52C108.09 62.52 106.62 61.13 106.62 58.82V55.74ZM112.93 55.74C112.93 54.44 112.12 53.74 110.67 53.74C109.22 53.74 108.4 54.45 108.4 55.74V58.84C108.4 60.15 109.21 60.84 110.67 60.84C112.13 60.84 112.93 60.12 112.93 58.84V55.74Z" fill="#B4B7C9"/>
<path d="M119.33 52.54C119.33 52.32 119.4 52.25 119.62 52.25H120.08C120.3 52.25 120.35 52.32 120.35 52.54V62.02C120.35 62.24 120.35 62.31 120.08 62.31H119.62C119.4 62.31 119.33 62.24 119.33 62.02V52.54Z" fill="#B4B7C9"/>
<path d="M129.46 52.25C130.293 52.25 131.092 52.5808 131.681 53.1697C132.27 53.7585 132.6 54.5572 132.6 55.39C132.6 56.2228 132.27 57.0215 131.681 57.6103C131.092 58.1992 130.293 58.53 129.46 58.53H126.46V62.02C126.46 62.24 126.41 62.31 126.2 62.31H125.73C125.52 62.31 125.44 62.24 125.44 62.02V52.54C125.44 52.32 125.52 52.25 125.73 52.25H129.46ZM129.37 57.54C129.657 57.54 129.94 57.4836 130.205 57.3741C130.469 57.2645 130.71 57.1039 130.912 56.9015C131.114 56.6991 131.275 56.4587 131.385 56.1943C131.494 55.9298 131.55 55.6463 131.55 55.36C131.55 55.0737 131.494 54.7902 131.385 54.5257C131.275 54.2613 131.114 54.0209 130.912 53.8185C130.71 53.6161 130.469 53.4555 130.205 53.3459C129.94 53.2364 129.657 53.18 129.37 53.18H126.37V57.54H129.37Z" fill="#B4B7C9"/>
<path d="M140.41 52.0501C141.182 51.9649 141.961 52.131 142.632 52.5237C143.301 52.9165 143.827 53.5149 144.13 54.2301C144.21 54.3901 144.13 54.5201 143.97 54.6001L143.53 54.8001C143.35 54.8701 143.28 54.8601 143.17 54.6701C142.944 54.1393 142.554 53.6943 142.058 53.3995C141.562 53.1047 140.985 52.9753 140.41 53.0301C138.72 53.0301 137.8 53.7001 137.8 54.9001C137.791 55.2668 137.914 55.6248 138.147 55.9078C138.381 56.1908 138.708 56.3799 139.07 56.4401C139.608 56.6155 140.166 56.723 140.73 56.7601C141.414 56.7965 142.088 56.9347 142.73 57.1701C143.223 57.326 143.647 57.6466 143.931 58.0782C144.215 58.5098 144.342 59.026 144.29 59.5401C144.29 61.4101 142.93 62.5401 140.43 62.5401C139.61 62.6339 138.783 62.4439 138.086 62.0017C137.389 61.5596 136.865 60.8919 136.6 60.1101C136.583 60.0745 136.573 60.0354 136.572 59.9956C136.572 59.9558 136.58 59.9164 136.596 59.8801C136.612 59.8438 136.636 59.8115 136.666 59.7856C136.696 59.7596 136.732 59.7407 136.77 59.7301L137.21 59.5701C137.245 59.5559 137.282 59.5491 137.32 59.5501C137.357 59.5511 137.394 59.5599 137.428 59.5759C137.462 59.5919 137.492 59.6147 137.516 59.643C137.541 59.6713 137.559 59.7043 137.57 59.7401C137.794 60.305 138.192 60.784 138.706 61.1077C139.22 61.4313 139.824 61.5828 140.43 61.5401C142.32 61.5401 143.25 60.8801 143.25 59.5401C143.268 59.1879 143.16 58.8408 142.946 58.5606C142.732 58.2805 142.425 58.0854 142.08 58.0101C141.563 57.8558 141.029 57.7618 140.49 57.7301L139.41 57.5901C139.072 57.5184 138.739 57.4282 138.41 57.3201C138.086 57.2222 137.784 57.0626 137.52 56.8501C137.255 56.6099 137.046 56.3143 136.908 55.9842C136.769 55.6541 136.705 55.2977 136.72 54.9401C136.79 53.1901 138.1 52.0501 140.41 52.0501Z" fill="#B4B7C9"/>
<path d="M149.68 58.89C149.722 59.5972 150.033 60.2615 150.549 60.7472C151.065 61.2329 151.747 61.5033 152.455 61.5033C153.163 61.5033 153.845 61.2329 154.361 60.7472C154.877 60.2615 155.187 59.5972 155.23 58.89V52.54C155.23 52.32 155.3 52.25 155.52 52.25H155.98C156.2 52.25 156.27 52.32 156.27 52.54V58.88C156.27 61.15 154.93 62.52 152.46 62.52C149.99 62.52 148.65 61.15 148.65 58.88V52.54C148.65 52.32 148.72 52.25 148.93 52.25H149.4C149.61 52.25 149.68 52.32 149.68 52.54V58.89Z" fill="#B4B7C9"/>
<path d="M170.07 52.25C170.29 52.25 170.36 52.32 170.36 52.54V62.02C170.36 62.24 170.29 62.31 170.07 62.31H169.65C169.44 62.31 169.37 62.24 169.37 62.02V56.25C169.37 55.4105 169.427 54.5719 169.54 53.74H169.48C169.168 54.5007 168.803 55.2391 168.39 55.95L166.24 59.74C166.214 59.8058 166.168 59.862 166.109 59.9013C166.05 59.9405 165.981 59.961 165.91 59.96H165.63C165.558 59.9604 165.488 59.9397 165.427 59.9007C165.367 59.8616 165.319 59.8058 165.29 59.74L163.11 55.91C162.723 55.2093 162.389 54.4806 162.11 53.73H162.05C162.152 54.5695 162.206 55.4143 162.21 56.26V62.02C162.21 62.24 162.14 62.31 161.92 62.31H161.53C161.31 62.31 161.24 62.24 161.24 62.02V52.54C161.24 52.32 161.31 52.25 161.53 52.25H161.89C161.972 52.2424 162.055 52.2603 162.126 52.3015C162.198 52.3427 162.255 52.4051 162.29 52.48L165.79 58.7L169.27 52.54C169.38 52.33 169.44 52.3 169.66 52.3L170.07 52.25Z" fill="#B4B7C9"/>
<path d="M55.73 60.79V68.02C55.73 68.2972 55.6199 68.563 55.4239 68.7589C55.228 68.9549 54.9622 69.065 54.685 69.065C54.4079 69.065 54.1421 68.9549 53.9461 68.7589C53.7501 68.563 53.64 68.2972 53.64 68.02V60.8C53.931 61.0125 54.2798 61.1311 54.64 61.14C55.0326 61.1512 55.4173 61.0277 55.73 60.79ZM64.63 58.7C64.3648 58.7 64.1104 58.8054 63.9229 58.9929C63.7354 59.1804 63.63 59.4348 63.63 59.7V60.96C63.63 61.2372 63.7401 61.503 63.9361 61.6989C64.132 61.8949 64.3978 62.005 64.675 62.005C64.9522 62.005 65.218 61.8949 65.4139 61.6989C65.6099 61.503 65.72 61.2372 65.72 60.96V59.75C65.7278 59.6066 65.7046 59.4632 65.652 59.3296C65.5994 59.196 65.5187 59.0752 65.4152 58.9756C65.3118 58.876 65.1881 58.7998 65.0527 58.7522C64.9172 58.7047 64.773 58.6869 64.63 58.7ZM51.37 63.53C51.0102 63.5192 50.6618 63.4008 50.37 63.19V70.44C50.37 70.7185 50.4806 70.9856 50.6775 71.1825C50.8744 71.3794 51.1415 71.49 51.42 71.49C51.6985 71.49 51.9656 71.3794 52.1625 71.1825C52.3594 70.9856 52.47 70.7185 52.47 70.44V63.24C52.1435 63.4511 51.7582 63.5527 51.37 63.53ZM61.37 56.53C61.2345 56.5232 61.0991 56.5441 60.9719 56.5913C60.8448 56.6385 60.7286 56.7111 60.6303 56.8046C60.5321 56.8982 60.454 57.0107 60.4006 57.1354C60.3473 57.2601 60.3198 57.3944 60.32 57.53V63.1C60.32 63.3785 60.4306 63.6456 60.6275 63.8425C60.8245 64.0394 61.0915 64.15 61.37 64.15C61.6485 64.15 61.9156 64.0394 62.1125 63.8425C62.3094 63.6456 62.42 63.3785 62.42 63.1V57.6C62.428 57.4557 62.4046 57.3114 62.3514 57.177C62.2982 57.0426 62.2166 56.9213 62.112 56.8215C62.0074 56.7217 61.8825 56.6457 61.7458 56.5989C61.6091 56.552 61.4638 56.5353 61.32 56.55L61.37 56.53ZM58.05 58.67C57.6733 58.6674 57.3067 58.5487 57 58.33V65.6C57 65.8785 57.1106 66.1456 57.3075 66.3425C57.5045 66.5394 57.7715 66.65 58.05 66.65C58.3285 66.65 58.5955 66.5394 58.7925 66.3425C58.9894 66.1456 59.1 65.8785 59.1 65.6V58.34C58.7828 58.5763 58.3955 58.6995 58 58.69L58.05 58.67ZM49.1 64.24V43.93C49.0974 43.6824 48.9972 43.4459 48.8212 43.2718C48.6452 43.0977 48.4076 43 48.16 43H47.94C47.6924 43 47.4548 43.0977 47.2788 43.2718C47.1028 43.4459 47.0026 43.6824 47 43.93V64.24C47 64.4893 47.099 64.7284 47.2753 64.9047C47.4516 65.081 47.6907 65.18 47.94 65.18H48.16C48.4093 65.18 48.6484 65.081 48.8247 64.9047C49.001 64.7284 49.1 64.4893 49.1 64.24ZM51.48 62.76H51.26C51.0107 62.76 50.7716 62.661 50.5953 62.4847C50.419 62.3084 50.32 62.0693 50.32 61.82V46.35C50.3226 46.1024 50.4228 45.8659 50.5988 45.6918C50.7748 45.5177 51.0124 45.42 51.26 45.42H51.48C51.7276 45.42 51.9652 45.5177 52.1412 45.6918C52.3172 45.8659 52.4174 46.1024 52.42 46.35V61.84C52.42 62.0893 52.321 62.3284 52.1447 62.5047C51.9684 62.681 51.7293 62.78 51.48 62.78V62.76ZM54.79 60.38H54.56C54.3134 60.38 54.0768 60.282 53.9024 60.1076C53.728 59.9332 53.63 59.6967 53.63 59.45V48.75C53.6287 48.627 53.6518 48.505 53.6979 48.391C53.744 48.277 53.8123 48.1733 53.8988 48.0859C53.9853 47.9985 54.0883 47.9291 54.2018 47.8817C54.3153 47.8344 54.437 47.81 54.56 47.81H54.79C55.0376 47.8126 55.2741 47.9128 55.4482 48.0888C55.6224 48.2648 55.72 48.5024 55.72 48.75V59.45C55.72 59.6967 55.622 59.9332 55.4476 60.1076C55.2732 60.282 55.0367 60.38 54.79 60.38ZM58.1 57.93H57.89C57.6424 57.93 57.4048 57.8324 57.2288 57.6582C57.0528 57.4841 56.9526 57.2476 56.95 57V51.24C56.9418 51.1116 56.96 50.9829 57.0036 50.8618C57.0471 50.7408 57.1151 50.6299 57.2032 50.5362C57.2913 50.4424 57.3977 50.3678 57.5159 50.3168C57.634 50.2659 57.7613 50.2397 57.89 50.24H58.11C58.3593 50.24 58.5984 50.339 58.7747 50.5153C58.951 50.6916 59.05 50.9307 59.05 51.18V56.98C59.0513 57.1043 59.028 57.2276 58.9813 57.3428C58.9347 57.458 58.8657 57.5628 58.7782 57.6512C58.6908 57.7395 58.5868 57.8096 58.472 57.8575C58.3573 57.9054 58.2343 57.93 58.11 57.93H58.1ZM61.42 55.78H61.2C60.9507 55.78 60.7116 55.681 60.5353 55.5047C60.359 55.3284 60.26 55.0893 60.26 54.84V53.35C60.2626 53.1024 60.3628 52.8659 60.5388 52.6918C60.7148 52.5176 60.9524 52.42 61.2 52.42H61.42C61.6676 52.42 61.9052 52.5176 62.0812 52.6918C62.2572 52.8659 62.3574 53.1024 62.36 53.35V54.84C62.36 55.0876 62.2624 55.3252 62.0882 55.5012C61.9141 55.6772 61.6776 55.7774 61.43 55.78H61.42Z" fill="#B4B7C9"/>
</g>
<defs>
<filter id="filter0_dd_4632_11228" x="0" y="0.4" width="218" height="122" filterUnits="userSpaceOnUse" color-interpolation-filters="sRGB">
<feFlood flood-opacity="0" result="BackgroundImageFix"/>
<feColorMatrix in="SourceAlpha" type="matrix" values="0 0 0 0 0 0 0 0 0 0 0 0 0 0 0 0 0 0 127 0" result="hardAlpha"/>
<feMorphology radius="1" operator="erode" in="SourceAlpha" result="effect1_dropShadow_4632_11228"/>
<feOffset dy="2"/>
<feGaussianBlur stdDeviation="3.2"/>
<feColorMatrix type="matrix" values="0 0 0 0 0.0745098 0 0 0 0 0.0627451 0 0 0 0 0.133333 0 0 0 0.03 0"/>
<feBlend mode="normal" in2="BackgroundImageFix" result="effect1_dropShadow_4632_11228"/>
<feColorMatrix in="SourceAlpha" type="matrix" values="0 0 0 0 0 0 0 0 0 0 0 0 0 0 0 0 0 0 127 0" result="hardAlpha"/>
<feMorphology radius="1" operator="erode" in="SourceAlpha" result="effect2_dropShadow_4632_11228"/>
<feOffset dy="4.4"/>
<feGaussianBlur stdDeviation="6"/>
<feColorMatrix type="matrix" values="0 0 0 0 0.0745098 0 0 0 0 0.0627451 0 0 0 0 0.133333 0 0 0 0.06 0"/>
<feBlend mode="normal" in2="effect1_dropShadow_4632_11228" result="effect2_dropShadow_4632_11228"/>
<feBlend mode="normal" in="SourceGraphic" in2="effect2_dropShadow_4632_11228" result="shape"/>
</filter>
</defs>
</svg>
