<svg width="196" height="100" viewBox="0 0 196 100" fill="none" xmlns="http://www.w3.org/2000/svg">
<rect x="0.5" y="0.5" width="195" height="99" rx="7.5" fill="white"/>
<rect x="0.5" y="0.5" width="195" height="99" rx="7.5" stroke="#E2E5F1"/>
<path d="M50.4191 48.371C50.0401 48.7523 49.7499 49.2125 49.569 49.7187C49.3882 50.225 49.3213 50.7649 49.373 51.3L49.355 51.282C49.4082 51.9119 49.3232 52.5457 49.1061 53.1394C48.889 53.733 48.5451 54.2721 48.0982 54.7191C47.6512 55.166 47.112 55.5101 46.5183 55.7271C45.9247 55.9442 45.2908 56.0292 44.661 55.976L44.6791 55.994C43.9257 55.9239 43.1689 56.0878 42.512 56.4635C41.8552 56.8392 41.3302 57.4083 41.0087 58.0933C40.6872 58.7783 40.5847 59.5457 40.7153 60.2911C40.846 61.0364 41.2033 61.7233 41.7386 62.2581C42.2739 62.7929 42.9611 63.1496 43.7065 63.2795C44.452 63.4095 45.2193 63.3063 45.904 62.9842C46.5887 62.662 47.1573 62.1366 47.5324 61.4794C47.9075 60.8222 48.0708 60.0654 48 59.312L48.019 59.33C47.9658 58.7002 48.0507 58.0663 48.2678 57.4726C48.4849 56.879 48.829 56.3399 49.2759 55.8929C49.7229 55.446 50.262 55.1019 50.8556 54.8849C51.4494 54.6678 52.0831 54.5828 52.713 54.636L52.694 54.618C53.3095 54.6733 53.929 54.5724 54.4951 54.3246C55.0611 54.0768 55.5554 53.6901 55.9322 53.2004C56.309 52.7107 56.5562 52.1337 56.6507 51.5231C56.7451 50.9124 56.684 50.2878 56.4727 49.707C56.2615 49.1263 55.9071 48.6083 55.4424 48.201C54.9777 47.7937 54.4178 47.5103 53.8144 47.3771C53.2109 47.2439 52.5837 47.2651 51.9907 47.4388C51.3976 47.6126 50.8582 47.9332 50.4221 48.371H50.4191Z" fill="#B4B7C9"/>
<path d="M43.0422 53.636L43.0232 53.618C43.5585 53.6719 44.0991 53.6062 44.606 53.4256C45.1128 53.245 45.5732 52.9541 45.9538 52.5738C46.3343 52.1935 46.6257 51.7333 46.8066 51.2266C46.9876 50.7199 47.0537 50.1794 47.0002 49.644L47.0192 49.662C46.966 49.0321 47.051 48.3983 47.268 47.8046C47.4851 47.211 47.8292 46.6719 48.2761 46.2249C48.7231 45.778 49.2622 45.4339 49.8558 45.2169C50.4495 44.9998 51.0833 44.9148 51.7132 44.968L51.6942 44.95C52.4477 45.0208 53.2046 44.8574 53.8618 44.4821C54.5191 44.1068 55.0445 43.538 55.3665 42.8531C55.6885 42.1682 55.7914 41.4007 55.6612 40.6552C55.531 39.9097 55.174 39.2225 54.6388 38.6874C54.1037 38.1522 53.4165 37.7952 52.671 37.665C51.9255 37.5347 51.158 37.6377 50.4731 37.9597C49.7882 38.2817 49.2194 38.8071 48.8441 39.4643C48.4688 40.1215 48.3054 40.8785 48.3762 41.632L48.3582 41.613C48.4115 42.2429 48.3267 42.8768 48.1097 43.4705C47.8927 44.0643 47.5486 44.6035 47.1017 45.0505C46.6547 45.4974 46.1155 45.8415 45.5218 46.0585C44.928 46.2755 44.2941 46.3603 43.6642 46.307L43.6822 46.326C43.1469 46.2721 42.6062 46.3378 42.0994 46.5184C41.5926 46.6989 41.1322 46.9899 40.7516 47.3702C40.371 47.7505 40.0797 48.2107 39.8987 48.7174C39.7178 49.2241 39.6517 49.7646 39.7052 50.3L39.6872 50.282C39.7402 50.9118 39.6551 51.5456 39.438 52.1392C39.2208 52.7327 38.8768 53.2718 38.4299 53.7187C37.9829 54.1656 37.4439 54.5096 36.8503 54.7268C36.2568 54.9439 35.623 55.029 34.9932 54.976L35.0112 54.994C34.2577 54.9232 33.5007 55.0866 32.8435 55.4619C32.1863 55.8372 31.6608 56.406 31.3388 57.0909C31.0168 57.7758 30.9139 58.5433 31.0441 59.2888C31.1744 60.0343 31.5314 60.7215 32.0665 61.2566C32.6017 61.7918 33.2888 62.1488 34.0344 62.279C34.7799 62.4092 35.5474 62.3063 36.2323 61.9843C36.9171 61.6623 37.486 61.1369 37.8613 60.4797C38.2366 59.8224 38.4 59.0655 38.3292 58.312L38.3482 58.33C38.295 57.7001 38.38 57.0663 38.5971 56.4726C38.8141 55.879 39.1582 55.3399 39.6051 54.8929C40.0521 54.446 40.5912 54.1019 41.1848 53.8849C41.7785 53.6678 42.4123 53.5828 43.0422 53.636Z" fill="#B4B7C9"/>
<path d="M36.3402 51.6289C36.7192 51.2477 37.0094 50.7875 37.1901 50.2812C37.3707 49.7749 37.4373 49.2349 37.3852 48.6999L37.4042 48.7179C37.351 48.0879 37.436 47.4538 37.6532 46.86C37.8704 46.2662 38.2146 45.727 38.6618 45.28C39.109 44.8331 39.6483 44.4891 40.2422 44.2721C40.8361 44.0552 41.4702 43.9705 42.1002 44.0239L42.0812 44.0059C42.8344 44.0765 43.5911 43.913 44.248 43.5378C44.9049 43.1625 45.43 42.5938 45.7519 41.9092C46.0737 41.2245 46.1765 40.4573 46.0463 39.712C45.9161 38.9668 45.5591 38.2799 45.0242 37.7449C44.4893 37.21 43.8023 36.8531 43.0571 36.7229C42.3119 36.5926 41.5446 36.6954 40.86 37.0173C40.1753 37.3391 39.6066 37.8643 39.2314 38.5212C38.8561 39.1781 38.6926 39.9347 38.7632 40.6879L38.7452 40.6699C38.7984 41.2998 38.7134 41.9337 38.4963 42.5273C38.2792 43.1209 37.9352 43.66 37.4883 44.107C37.0413 44.554 36.5022 44.898 35.9086 45.115C35.3149 45.3321 34.6811 45.4171 34.0512 45.3639L34.0692 45.3819C33.4538 45.3267 32.8344 45.4278 32.2684 45.6757C31.7024 45.9236 31.2082 46.3104 30.8315 46.8002C30.4547 47.2899 30.2078 47.8669 30.1134 48.4775C30.019 49.0882 30.0803 49.7128 30.2916 50.2934C30.5028 50.8741 30.8573 51.392 31.322 51.7992C31.7867 52.2065 32.3467 52.4898 32.9501 52.623C33.5535 52.7561 34.1807 52.7348 34.7737 52.5611C35.3666 52.3873 35.9061 52.0667 36.3422 51.6289H36.3402Z" fill="#B4B7C9"/>
<path d="M67.3174 41.655H70.2874V56.108H67.3174V41.655Z" fill="#B4B7C9"/>
<path d="M71.9689 51.1591C71.9648 50.1205 72.269 49.1039 72.843 48.2383C73.417 47.3727 74.235 46.6969 75.1934 46.2966C76.1518 45.8962 77.2074 45.7893 78.2266 45.9894C79.2458 46.1895 80.1827 46.6875 80.9186 47.4205C81.6545 48.1534 82.1563 49.0883 82.3605 50.1067C82.5647 51.1251 82.462 52.1812 82.0655 53.1412C81.669 54.1011 80.9965 54.9219 80.1332 55.4993C79.2698 56.0768 78.2546 56.3851 77.2159 56.3851C76.5265 56.393 75.8424 56.2633 75.2036 56.0037C74.5648 55.7441 73.9842 55.3598 73.4957 54.8733C73.0071 54.3867 72.6205 53.8076 72.3584 53.1699C72.0962 52.5322 71.9638 51.8486 71.9689 51.1591ZM79.4929 51.1591C79.4805 50.7114 79.3364 50.2773 79.0787 49.911C78.8209 49.5448 78.4609 49.2626 78.0437 49.0999C77.6264 48.9371 77.1705 48.9009 76.7328 48.9959C76.2951 49.0909 75.8951 49.3127 75.5828 49.6338C75.2706 49.9548 75.0598 50.3608 74.9771 50.801C74.8943 51.2411 74.943 51.6959 75.1173 52.1085C75.2916 52.5211 75.5836 52.8731 75.9568 53.1206C76.3301 53.3681 76.7681 53.5001 77.2159 53.5001C77.5226 53.5083 77.8277 53.4528 78.112 53.3372C78.3962 53.2216 78.6534 53.0484 78.8673 52.8285C79.0812 52.6085 79.2473 52.3466 79.3549 52.0593C79.4626 51.772 79.5096 51.4655 79.4929 51.1591Z" fill="#B4B7C9"/>
<path d="M94.2999 46.2091V55.6091C94.2999 58.9351 91.7059 60.3411 89.0729 60.3411C88.1459 60.4105 87.2176 60.2232 86.3899 59.7999C85.5623 59.3765 84.8672 58.7334 84.3809 57.9411L86.9149 56.4761C87.1193 56.8891 87.445 57.2298 87.8483 57.4527C88.2517 57.6755 88.7135 57.7699 89.1719 57.7231C89.4649 57.7637 89.7633 57.7379 90.045 57.6476C90.3266 57.5573 90.5844 57.4048 90.7992 57.2015C91.014 56.9981 91.1803 56.7491 91.2859 56.4727C91.3914 56.1964 91.4334 55.8999 91.4089 55.6051V54.7001C91.0611 55.1256 90.6185 55.4637 90.1164 55.6872C89.6143 55.9107 89.0669 56.0134 88.5179 55.9871C87.2117 55.9459 85.9728 55.3981 85.0634 54.4595C84.154 53.521 83.6455 52.2654 83.6455 50.9586C83.6455 49.6518 84.154 48.3962 85.0634 47.4577C85.9728 46.5191 87.2117 45.9713 88.5179 45.9301C89.0669 45.9038 89.6143 46.0065 90.1164 46.23C90.6185 46.4535 91.0611 46.7916 91.4089 47.2171V46.2071L94.2999 46.2091ZM91.4099 50.9601C91.4299 50.4815 91.3061 50.0078 91.0546 49.6001C90.8031 49.1923 90.4353 48.8692 89.9986 48.6723C89.5619 48.4753 89.0763 48.4136 88.6042 48.495C88.1321 48.5764 87.6952 48.7972 87.3496 49.1291C87.0041 49.4609 86.7658 49.8885 86.6653 50.3569C86.5649 50.8253 86.6069 51.3131 86.7861 51.7574C86.9652 52.2017 87.2732 52.5823 87.6704 52.8501C88.0676 53.1179 88.5359 53.2607 89.0149 53.2601C89.327 53.2819 89.6401 53.2381 89.9342 53.1315C90.2283 53.0249 90.4968 52.8578 90.7224 52.6412C90.948 52.4245 91.1258 52.163 91.2442 51.8734C91.3626 51.5839 91.4191 51.2728 91.4099 50.9601Z" fill="#B4B7C9"/>
<path d="M95.9816 51.1591C95.9775 50.1205 96.2816 49.1039 96.8557 48.2383C97.4297 47.3727 98.2477 46.6969 99.2061 46.2966C100.164 45.8962 101.22 45.7893 102.239 45.9894C103.258 46.1895 104.195 46.6875 104.931 47.4205C105.667 48.1534 106.169 49.0883 106.373 50.1067C106.577 51.1251 106.475 52.1812 106.078 53.1412C105.682 54.1011 105.009 54.9219 104.146 55.4993C103.282 56.0768 102.267 56.3851 101.229 56.3851C100.539 56.393 99.855 56.2633 99.2163 56.0037C98.5775 55.7441 97.9969 55.3598 97.5084 54.8733C97.0198 54.3867 96.6332 53.8076 96.3711 53.1699C96.1089 52.5322 95.9765 51.8486 95.9816 51.1591ZM103.506 51.1591C103.493 50.7114 103.349 50.2773 103.091 49.911C102.834 49.5448 102.474 49.2626 102.056 49.0999C101.639 48.9371 101.183 48.9009 100.745 48.9959C100.308 49.0909 99.9078 49.3127 99.5955 49.6338C99.2833 49.9548 99.0725 50.3608 98.9897 50.801C98.9069 51.2411 98.9557 51.6959 99.13 52.1085C99.3043 52.5211 99.5963 52.8731 99.9695 53.1206C100.343 53.3681 100.781 53.5001 101.229 53.5001C101.535 53.5083 101.84 53.4528 102.125 53.3372C102.409 53.2216 102.666 53.0484 102.88 52.8285C103.094 52.6085 103.26 52.3466 103.368 52.0593C103.475 51.772 103.522 51.4655 103.506 51.1591Z" fill="#B4B7C9"/>
<path d="M107.861 43.5559C107.861 43.2035 107.966 42.8589 108.162 42.5659C108.357 42.2729 108.636 42.0444 108.961 41.9096C109.287 41.7747 109.645 41.7394 109.991 41.8082C110.337 41.8769 110.654 42.0466 110.903 42.2959C111.153 42.5451 111.322 42.8626 111.391 43.2083C111.46 43.5539 111.425 43.9122 111.29 44.2379C111.155 44.5635 110.926 44.8418 110.633 45.0376C110.34 45.2334 109.996 45.3379 109.643 45.3379C109.172 45.3332 108.722 45.144 108.388 44.8108C108.055 44.4776 107.866 44.0271 107.861 43.5559ZM108.161 46.2089H111.132V56.1089H108.157L108.161 46.2089Z" fill="#B4B7C9"/>
<path d="M123.956 51.159C123.99 51.8133 123.895 52.4679 123.675 53.0852C123.456 53.7025 123.116 54.2703 122.676 54.756C122.237 55.2416 121.705 55.6356 121.113 55.9152C120.52 56.1947 119.878 56.3544 119.224 56.385C118.673 56.415 118.123 56.3222 117.613 56.1133C117.103 55.9043 116.646 55.5845 116.275 55.177V60.068H113.305V46.209H116.275V47.139C116.646 46.7318 117.103 46.4122 117.613 46.2035C118.123 45.9947 118.673 45.902 119.224 45.932C119.878 45.9625 120.52 46.1221 121.113 46.4017C121.706 46.6813 122.237 47.0753 122.677 47.5611C123.117 48.0469 123.456 48.6149 123.676 49.2324C123.895 49.8498 123.99 50.5046 123.956 51.159ZM120.986 51.159C120.974 50.6957 120.826 50.2461 120.56 49.8664C120.294 49.4868 119.922 49.194 119.491 49.0248C119.059 48.8555 118.588 48.8172 118.135 48.9148C117.681 49.0123 117.267 49.2413 116.944 49.5731C116.62 49.905 116.402 50.3248 116.315 50.7803C116.229 51.2357 116.279 51.7063 116.46 52.1334C116.64 52.5605 116.942 52.9249 117.328 53.1812C117.714 53.4374 118.167 53.5741 118.631 53.574C118.949 53.5882 119.266 53.5349 119.563 53.4177C119.859 53.3006 120.127 53.1221 120.349 52.8941C120.572 52.666 120.743 52.3936 120.853 52.0946C120.963 51.7956 121.008 51.4767 120.986 51.159Z" fill="#B4B7C9"/>
<path d="M133.121 53.1381C133.121 55.4151 131.142 56.3851 129.004 56.3851C128.14 56.4633 127.273 56.2807 126.514 55.8606C125.755 55.4406 125.14 54.8026 124.747 54.0291L127.32 52.5641C127.424 52.9216 127.648 53.2327 127.953 53.4452C128.259 53.6578 128.629 53.7591 129 53.7321C129.712 53.7321 130.069 53.5141 130.069 53.1191C130.069 52.0291 125.198 52.6041 125.198 49.1791C125.198 47.0201 127.02 45.9321 129.079 45.9321C129.853 45.9076 130.619 46.0912 131.298 46.4637C131.977 46.8363 132.544 47.3841 132.939 48.0501L130.405 49.4161C130.294 49.1568 130.109 48.9359 129.873 48.781C129.637 48.6261 129.361 48.5441 129.079 48.5451C128.564 48.5451 128.247 48.7451 128.247 49.0991C128.251 50.2281 133.121 49.4751 133.121 53.1381Z" fill="#B4B7C9"/>
<path d="M143.97 46.209V56.109H141V55.178C140.657 55.5888 140.222 55.9125 139.73 56.1225C139.238 56.3325 138.704 56.4228 138.17 56.386C136.17 56.386 134.47 54.961 134.47 52.286V46.209H137.44V51.851C137.415 52.0868 137.442 52.3252 137.519 52.5495C137.595 52.7739 137.72 52.9789 137.884 53.1502C138.048 53.3215 138.247 53.455 138.468 53.5415C138.688 53.628 138.925 53.6654 139.162 53.651C140.251 53.651 141.003 53.018 141.003 51.612V46.212L143.97 46.209Z" fill="#B4B7C9"/>
<path d="M161 50.03V56.108H158.03V50.287C158.03 49.297 157.555 48.664 156.605 48.664C155.615 48.664 155.06 49.357 155.06 50.525V56.108H152.091V50.287C152.091 49.297 151.616 48.664 150.665 48.664C149.675 48.664 149.121 49.357 149.121 50.525V56.108H146.151V46.208H149.121V47.118C149.429 46.7143 149.833 46.3941 150.296 46.1868C150.76 45.9794 151.268 45.8915 151.774 45.931C152.282 45.9061 152.788 46.0134 153.243 46.2423C153.697 46.4711 154.084 46.8139 154.367 47.237C154.696 46.7943 155.132 46.4423 155.634 46.2139C156.136 45.9855 156.688 45.8882 157.238 45.931C159.511 45.932 161 47.555 161 50.03Z" fill="#B4B7C9"/>
<path d="M163.512 46.148C164.729 46.148 165.716 45.1612 165.716 43.944C165.716 42.7268 164.729 41.74 163.512 41.74C162.295 41.74 161.308 42.7268 161.308 43.944C161.308 45.1612 162.295 46.148 163.512 46.148Z" fill="#B4B7C9"/>
</svg>
