<svg width="60" height="60" viewBox="0 0 60 60" fill="none" xmlns="http://www.w3.org/2000/svg">
<rect width="60" height="60" rx="8" fill="#6366F1" fill-opacity="0.08"/>
<g clip-path="url(#clip0_4632_11147)">
<path d="M42.3217 38.5444C43.4213 37.0473 43.999 35.3076 43.999 33.474C43.999 30.5388 42.4768 27.8137 39.9088 26.1132C39.672 23.4981 38.4509 21.0729 36.4093 19.2042C34.1518 17.138 31.1566 16 27.9756 16C24.7946 16 21.7995 17.138 19.5419 19.2043C17.2573 21.2953 15.9991 24.0831 15.9991 27.0543C15.9991 29.3396 16.7358 31.5062 18.1362 33.36L16.0788 38.4494C15.9119 38.8621 16.0119 39.3348 16.3315 39.6446C16.5399 39.8465 16.8143 39.9531 17.0931 39.9531C17.242 39.9531 17.3922 39.9227 17.534 39.8602L23.402 37.2734C24.1387 37.555 24.8977 37.7657 25.6741 37.9051C26.4695 39.2132 27.6039 40.3208 28.983 41.1272C30.5227 42.0273 32.3004 42.5082 34.129 42.5221C34.1558 42.524 34.1826 42.5262 34.21 42.5262C35.4742 42.5262 36.6991 42.3078 37.8578 41.8765L42.4641 43.907C42.6059 43.9696 42.7561 44 42.905 44C43.1838 44 43.4583 43.8935 43.6666 43.6915C43.9863 43.3816 44.0862 42.9089 43.9193 42.4963L42.3217 38.5444ZM40.0554 38.7749L40.8817 40.8189L38.3203 39.6898C38.0434 39.5677 37.7283 39.5658 37.4499 39.6846C36.446 40.1129 35.371 40.3324 34.2543 40.3381C34.2395 40.3375 34.2249 40.3359 34.21 40.3359C32.0545 40.3359 30.0182 39.4936 28.5955 38.0924C30.3993 38.006 32.1673 37.5454 33.7436 36.7449C34.2823 36.4713 34.4971 35.813 34.2235 35.2744C33.95 34.7358 33.2916 34.5211 32.753 34.7945C31.302 35.5315 29.6499 35.9211 27.9756 35.9211C26.5207 35.9211 25.12 35.6382 23.8126 35.0804C23.5343 34.9616 23.2191 34.9634 22.9422 35.0856L19.1164 36.7721L20.4045 33.5857C20.5572 33.2078 20.4873 32.7763 20.2228 32.4662C18.8907 30.9034 18.1866 29.0319 18.1866 27.0543C18.1866 22.1651 22.5779 18.1875 27.9756 18.1875C33.3733 18.1875 37.7646 22.1651 37.7646 27.0543C37.7646 28.6334 37.3004 30.1837 36.422 31.5375C36.0932 32.0442 36.2374 32.7215 36.7442 33.0503C37.2509 33.3792 37.9282 33.2348 38.2571 32.7281C39.0366 31.5267 39.5574 30.2002 39.7982 28.8225C41.0795 30.0772 41.8115 31.73 41.8115 33.474C41.8115 35.0012 41.2671 36.4471 40.2371 37.6554C39.9726 37.9656 39.9027 38.3971 40.0554 38.7749ZM29.0147 32.6797C29.0147 33.2837 28.525 33.7734 27.9209 33.7734C27.3168 33.7734 26.8272 33.2837 26.8272 32.6797C26.8272 32.0756 27.3168 31.5859 27.9209 31.5859C28.525 31.5859 29.0147 32.0756 29.0147 32.6797ZM32.0762 24.4849C32.0769 24.5001 32.0772 24.5153 32.0772 24.5306C32.0776 26.1771 31.0993 27.6588 29.5849 28.3053C29.2716 28.4391 29.069 28.7547 29.069 29.1092V29.1797C29.069 29.7837 28.5793 30.2734 27.9753 30.2734C27.3712 30.2734 26.8815 29.7837 26.8815 29.1797V29.1093C26.8815 27.8771 27.6055 26.7719 28.7261 26.2935C29.4235 25.9958 29.8774 25.3187 29.8894 24.5625C29.8892 24.552 29.889 24.5415 29.889 24.5309C29.889 23.4757 29.0305 22.6172 27.9753 22.6172C26.9201 22.6172 26.0615 23.4757 26.0615 24.5308C26.0615 25.1349 25.5719 25.6246 24.9678 25.6246C24.3637 25.6246 23.874 25.1349 23.874 24.5308C23.874 22.2695 25.7138 20.4297 27.9753 20.4297C30.2213 20.4297 32.0516 22.2446 32.0762 24.4849Z" fill="url(#paint0_linear_4632_11147)"/>
</g>
<defs>
<linearGradient id="paint0_linear_4632_11147" x1="15.999" y1="30.067" x2="43.9991" y2="30.067" gradientUnits="userSpaceOnUse">
<stop stop-color="#6366F1"/>
<stop offset="0.5" stop-color="#8B5CF6"/>
<stop offset="1" stop-color="#D946EF"/>
</linearGradient>
<clipPath id="clip0_4632_11147">
<rect width="28" height="28" fill="white" transform="translate(16 16)"/>
</clipPath>
</defs>
</svg>
