<svg width="60" height="60" viewBox="0 0 60 60" fill="none" xmlns="http://www.w3.org/2000/svg">
<rect width="60" height="60" rx="8" fill="#6366F1" fill-opacity="0.08"/>
<g clip-path="url(#clip0_4632_11131)">
<path d="M29.9453 37.6562C24.9141 37.6562 22.5728 33.4344 22.4753 33.2548C22.188 32.7235 22.3858 32.0598 22.9171 31.7722C23.4486 31.4849 24.1121 31.6827 24.3994 32.214C24.4018 32.2183 24.8733 33.0614 25.8111 33.8813C27.0159 34.9347 28.4068 35.4688 29.9453 35.4688C33.6873 35.4688 35.4734 32.2465 35.491 32.214C35.7785 31.6827 36.4422 31.4849 36.9735 31.7724C37.5048 32.0598 37.7026 32.7235 37.4151 33.2548C37.3179 33.4344 34.9766 37.6562 29.9453 37.6562ZM37.244 41.9823C37.7607 41.6694 37.9258 40.9969 37.6129 40.4801C37.2999 39.9636 36.6272 39.7985 36.1107 40.1114C34.2735 41.2242 32.1604 41.8125 30 41.8125C23.4866 41.8125 18.1875 36.5134 18.1875 30C18.1875 23.4866 23.4866 18.1875 30 18.1875C36.5134 18.1875 41.8125 23.4866 41.8125 30C41.8125 32.3291 41.1199 34.5961 39.8096 36.5561C39.4738 37.0583 39.6088 37.7376 40.1108 38.0732C40.6132 38.4091 41.2923 38.274 41.6279 37.7718C43.1799 35.451 44 32.7634 44 30C44 26.2605 42.5437 22.7447 39.8995 20.1005C37.2553 17.4563 33.7395 16 30 16C26.2605 16 22.7447 17.4563 20.1005 20.1005C17.4563 22.7447 16 26.2605 16 30C16 33.7395 17.4563 37.2553 20.1005 39.8995C22.7447 42.5437 26.2605 44 30 44C32.5601 44 35.065 43.3023 37.244 41.9823ZM37.6016 27.375C37.6016 25.8672 36.3749 24.6406 34.8672 24.6406C33.3594 24.6406 32.1328 25.8672 32.1328 27.375C32.1328 27.9791 32.6224 28.4688 33.2266 28.4688C33.8307 28.4688 34.3203 27.9791 34.3203 27.375C34.3203 27.0734 34.5656 26.8281 34.8672 26.8281C35.1688 26.8281 35.4141 27.0734 35.4141 27.375C35.4141 27.9791 35.9037 28.4688 36.5078 28.4688C37.1119 28.4688 37.6016 27.9791 37.6016 27.375ZM27.9219 27.375C27.9219 25.8672 26.6953 24.6406 25.1875 24.6406C23.6797 24.6406 22.4531 25.8672 22.4531 27.375C22.4531 27.9791 22.9427 28.4688 23.5469 28.4688C24.151 28.4688 24.6406 27.9791 24.6406 27.375C24.6406 27.0734 24.8859 26.8281 25.1875 26.8281C25.4891 26.8281 25.7344 27.0734 25.7344 27.375C25.7344 27.9791 26.224 28.4688 26.8281 28.4688C27.4323 28.4688 27.9219 27.9791 27.9219 27.375Z" fill="url(#paint0_linear_4632_11131)"/>
</g>
<defs>
<linearGradient id="paint0_linear_4632_11131" x1="16" y1="30.067" x2="44" y2="30.067" gradientUnits="userSpaceOnUse">
<stop stop-color="#6366F1"/>
<stop offset="0.5" stop-color="#8B5CF6"/>
<stop offset="1" stop-color="#D946EF"/>
</linearGradient>
<clipPath id="clip0_4632_11131">
<rect width="28" height="28" fill="white" transform="translate(16 16)"/>
</clipPath>
</defs>
</svg>
